<?xml version="1.0" encoding="utf-8" standalone="no"?>
<!DOCTYPE svg PUBLIC "-//W3C//DTD SVG 1.1//EN"
  "http://www.w3.org/Graphics/SVG/1.1/DTD/svg11.dtd">
<svg xmlns:xlink="http://www.w3.org/1999/xlink" width="936pt" height="460.8pt" viewBox="0 0 936 460.8" xmlns="http://www.w3.org/2000/svg" version="1.1">
 <metadata>
  <rdf:RDF xmlns:dc="http://purl.org/dc/elements/1.1/" xmlns:cc="http://creativecommons.org/ns#" xmlns:rdf="http://www.w3.org/1999/02/22-rdf-syntax-ns#">
   <cc:Work>
    <dc:type rdf:resource="http://purl.org/dc/dcmitype/StillImage"/>
    <dc:date>2024-09-02T08:47:04.522160</dc:date>
    <dc:format>image/svg+xml</dc:format>
    <dc:creator>
     <cc:Agent>
      <dc:title>Matplotlib v3.9.1, https://matplotlib.org/</dc:title>
     </cc:Agent>
    </dc:creator>
   </cc:Work>
  </rdf:RDF>
 </metadata>
 <defs>
  <style type="text/css">*{stroke-linejoin: round; stroke-linecap: butt}</style>
 </defs>
 <g id="figure_1">
  <g id="patch_1">
   <path d="M 0 460.8 
L 936 460.8 
L 936 0 
L 0 0 
z
" style="fill: #ffffff"/>
  </g>
  <g id="axes_1">
   <g id="patch_2">
    <path d="M 65.52 396.288 
L 398.32 396.288 
L 398.32 23.04 
L 65.52 23.04 
z
" style="fill: #ffffff"/>
   </g>
   <g id="matplotlib.axis_1">
    <g id="xtick_1">
     <g id="line2d_1">
      <defs>
       <path id="m0c8a15ac6b" d="M 0 0 
L 0 -8 
" style="stroke: #000000; stroke-width: 1.5"/>
      </defs>
      <g>
       <use xlink:href="#m0c8a15ac6b" x="128.423183" y="396.288" style="stroke: #000000; stroke-width: 1.5"/>
      </g>
     </g>
     <g id="line2d_2">
      <defs>
       <path id="m82f04ff506" d="M 0 0 
L 0 8 
" style="stroke: #000000; stroke-width: 1.5"/>
      </defs>
      <g>
       <use xlink:href="#m82f04ff506" x="128.423183" y="23.04" style="stroke: #000000; stroke-width: 1.5"/>
      </g>
     </g>
     <g id="text_1">
      <!-- 3.0 -->
      <g transform="translate(115.913183 412.700187) scale(0.18 -0.18)">
       <defs>
        <path id="Helvetica-33" d="M 1663 -122 
Q 869 -122 511 314 
Q 153 750 153 1375 
L 741 1375 
Q 778 941 903 744 
Q 1122 391 1694 391 
Q 2138 391 2406 628 
Q 2675 866 2675 1241 
Q 2675 1703 2392 1887 
Q 2109 2072 1606 2072 
Q 1550 2072 1492 2070 
Q 1434 2069 1375 2066 
L 1375 2563 
Q 1463 2553 1522 2550 
Q 1581 2547 1650 2547 
Q 1966 2547 2169 2647 
Q 2525 2822 2525 3272 
Q 2525 3606 2287 3787 
Q 2050 3969 1734 3969 
Q 1172 3969 956 3594 
Q 838 3388 822 3006 
L 266 3006 
Q 266 3506 466 3856 
Q 809 4481 1675 4481 
Q 2359 4481 2734 4176 
Q 3109 3872 3109 3294 
Q 3109 2881 2888 2625 
Q 2750 2466 2531 2375 
Q 2884 2278 3082 2001 
Q 3281 1725 3281 1325 
Q 3281 684 2859 281 
Q 2438 -122 1663 -122 
z
" transform="scale(0.015625)"/>
        <path id="Helvetica-2e" d="M 547 681 
L 1200 681 
L 1200 0 
L 547 0 
L 547 681 
z
" transform="scale(0.015625)"/>
        <path id="Helvetica-30" d="M 1731 4475 
Q 2600 4475 2988 3759 
Q 3288 3206 3288 2244 
Q 3288 1331 3016 734 
Q 2622 -122 1728 -122 
Q 922 -122 528 578 
Q 200 1163 200 2147 
Q 200 2909 397 3456 
Q 766 4475 1731 4475 
z
M 1725 391 
Q 2163 391 2422 778 
Q 2681 1166 2681 2222 
Q 2681 2984 2493 3476 
Q 2306 3969 1766 3969 
Q 1269 3969 1039 3501 
Q 809 3034 809 2125 
Q 809 1441 956 1025 
Q 1181 391 1725 391 
z
" transform="scale(0.015625)"/>
       </defs>
       <use xlink:href="#Helvetica-33"/>
       <use xlink:href="#Helvetica-2e" x="55.615234"/>
       <use xlink:href="#Helvetica-30" x="83.398438"/>
      </g>
     </g>
    </g>
    <g id="xtick_2">
     <g id="line2d_3">
      <g>
       <use xlink:href="#m0c8a15ac6b" x="197.636458" y="396.288" style="stroke: #000000; stroke-width: 1.5"/>
      </g>
     </g>
     <g id="line2d_4">
      <g>
       <use xlink:href="#m82f04ff506" x="197.636458" y="23.04" style="stroke: #000000; stroke-width: 1.5"/>
      </g>
     </g>
     <g id="text_2">
      <!-- 3.5 -->
      <g transform="translate(185.126458 412.700187) scale(0.18 -0.18)">
       <defs>
        <path id="Helvetica-35" d="M 791 1141 
Q 847 659 1238 475 
Q 1438 381 1700 381 
Q 2200 381 2440 700 
Q 2681 1019 2681 1406 
Q 2681 1875 2395 2131 
Q 2109 2388 1709 2388 
Q 1419 2388 1211 2275 
Q 1003 2163 856 1963 
L 369 1991 
L 709 4400 
L 3034 4400 
L 3034 3856 
L 1131 3856 
L 941 2613 
Q 1097 2731 1238 2791 
Q 1488 2894 1816 2894 
Q 2431 2894 2859 2497 
Q 3288 2100 3288 1491 
Q 3288 856 2895 371 
Q 2503 -113 1644 -113 
Q 1097 -113 676 195 
Q 256 503 206 1141 
L 791 1141 
z
" transform="scale(0.015625)"/>
       </defs>
       <use xlink:href="#Helvetica-33"/>
       <use xlink:href="#Helvetica-2e" x="55.615234"/>
       <use xlink:href="#Helvetica-35" x="83.398438"/>
      </g>
     </g>
    </g>
    <g id="xtick_3">
     <g id="line2d_5">
      <g>
       <use xlink:href="#m0c8a15ac6b" x="266.849734" y="396.288" style="stroke: #000000; stroke-width: 1.5"/>
      </g>
     </g>
     <g id="line2d_6">
      <g>
       <use xlink:href="#m82f04ff506" x="266.849734" y="23.04" style="stroke: #000000; stroke-width: 1.5"/>
      </g>
     </g>
     <g id="text_3">
      <!-- 4.0 -->
      <g transform="translate(254.339734 412.700187) scale(0.18 -0.18)">
       <defs>
        <path id="Helvetica-34" d="M 2116 1584 
L 2116 3613 
L 681 1584 
L 2116 1584 
z
M 2125 0 
L 2125 1094 
L 163 1094 
L 163 1644 
L 2213 4488 
L 2688 4488 
L 2688 1584 
L 3347 1584 
L 3347 1094 
L 2688 1094 
L 2688 0 
L 2125 0 
z
" transform="scale(0.015625)"/>
       </defs>
       <use xlink:href="#Helvetica-34"/>
       <use xlink:href="#Helvetica-2e" x="55.615234"/>
       <use xlink:href="#Helvetica-30" x="83.398438"/>
      </g>
     </g>
    </g>
    <g id="xtick_4">
     <g id="line2d_7">
      <g>
       <use xlink:href="#m0c8a15ac6b" x="336.063009" y="396.288" style="stroke: #000000; stroke-width: 1.5"/>
      </g>
     </g>
     <g id="line2d_8">
      <g>
       <use xlink:href="#m82f04ff506" x="336.063009" y="23.04" style="stroke: #000000; stroke-width: 1.5"/>
      </g>
     </g>
     <g id="text_4">
      <!-- 4.5 -->
      <g transform="translate(323.553009 412.700187) scale(0.18 -0.18)">
       <use xlink:href="#Helvetica-34"/>
       <use xlink:href="#Helvetica-2e" x="55.615234"/>
       <use xlink:href="#Helvetica-35" x="83.398438"/>
      </g>
     </g>
    </g>
    <g id="xtick_5">
     <g id="line2d_9">
      <defs>
       <path id="ma969ed9316" d="M 0 0 
L 0 -4 
" style="stroke: #000000; stroke-width: 1.5"/>
      </defs>
      <g>
       <use xlink:href="#ma969ed9316" x="93.816545" y="396.288" style="stroke: #000000; stroke-width: 1.5"/>
      </g>
     </g>
     <g id="line2d_10">
      <defs>
       <path id="mbf68d1f3a3" d="M 0 0 
L 0 4 
" style="stroke: #000000; stroke-width: 1.5"/>
      </defs>
      <g>
       <use xlink:href="#mbf68d1f3a3" x="93.816545" y="23.04" style="stroke: #000000; stroke-width: 1.5"/>
      </g>
     </g>
    </g>
    <g id="xtick_6">
     <g id="line2d_11">
      <g>
       <use xlink:href="#ma969ed9316" x="163.02982" y="396.288" style="stroke: #000000; stroke-width: 1.5"/>
      </g>
     </g>
     <g id="line2d_12">
      <g>
       <use xlink:href="#mbf68d1f3a3" x="163.02982" y="23.04" style="stroke: #000000; stroke-width: 1.5"/>
      </g>
     </g>
    </g>
    <g id="xtick_7">
     <g id="line2d_13">
      <g>
       <use xlink:href="#ma969ed9316" x="232.243096" y="396.288" style="stroke: #000000; stroke-width: 1.5"/>
      </g>
     </g>
     <g id="line2d_14">
      <g>
       <use xlink:href="#mbf68d1f3a3" x="232.243096" y="23.04" style="stroke: #000000; stroke-width: 1.5"/>
      </g>
     </g>
    </g>
    <g id="xtick_8">
     <g id="line2d_15">
      <g>
       <use xlink:href="#ma969ed9316" x="301.456371" y="396.288" style="stroke: #000000; stroke-width: 1.5"/>
      </g>
     </g>
     <g id="line2d_16">
      <g>
       <use xlink:href="#mbf68d1f3a3" x="301.456371" y="23.04" style="stroke: #000000; stroke-width: 1.5"/>
      </g>
     </g>
    </g>
    <g id="xtick_9">
     <g id="line2d_17">
      <g>
       <use xlink:href="#ma969ed9316" x="370.669647" y="396.288" style="stroke: #000000; stroke-width: 1.5"/>
      </g>
     </g>
     <g id="line2d_18">
      <g>
       <use xlink:href="#mbf68d1f3a3" x="370.669647" y="23.04" style="stroke: #000000; stroke-width: 1.5"/>
      </g>
     </g>
    </g>
    <g id="text_5">
     <!-- a $(\mathrm{\AA})$ -->
     <g transform="translate(208.92 437.683312) scale(0.2 -0.2)">
      <defs>
       <path id="Helvetica-61" d="M 844 891 
Q 844 647 1022 506 
Q 1200 366 1444 366 
Q 1741 366 2019 503 
Q 2488 731 2488 1250 
L 2488 1703 
Q 2384 1638 2221 1594 
Q 2059 1550 1903 1531 
L 1563 1488 
Q 1256 1447 1103 1359 
Q 844 1213 844 891 
z
M 2206 2028 
Q 2400 2053 2466 2191 
Q 2503 2266 2503 2406 
Q 2503 2694 2298 2823 
Q 2094 2953 1713 2953 
Q 1272 2953 1088 2716 
Q 984 2584 953 2325 
L 428 2325 
Q 444 2944 830 3186 
Q 1216 3428 1725 3428 
Q 2316 3428 2684 3203 
Q 3050 2978 3050 2503 
L 3050 575 
Q 3050 488 3086 434 
Q 3122 381 3238 381 
Q 3275 381 3322 386 
Q 3369 391 3422 400 
L 3422 -16 
Q 3291 -53 3222 -62 
Q 3153 -72 3034 -72 
Q 2744 -72 2613 134 
Q 2544 244 2516 444 
Q 2344 219 2022 53 
Q 1700 -113 1313 -113 
Q 847 -113 551 170 
Q 256 453 256 878 
Q 256 1344 547 1600 
Q 838 1856 1309 1916 
L 2206 2028 
z
M 1741 3428 
L 1741 3428 
z
" transform="scale(0.015625)"/>
       <path id="Helvetica-20" transform="scale(0.015625)"/>
       <path id="DejaVuSans-28" d="M 1984 4856 
Q 1566 4138 1362 3434 
Q 1159 2731 1159 2009 
Q 1159 1288 1364 580 
Q 1569 -128 1984 -844 
L 1484 -844 
Q 1016 -109 783 600 
Q 550 1309 550 2009 
Q 550 2706 781 3412 
Q 1013 4119 1484 4856 
L 1984 4856 
z
" transform="scale(0.015625)"/>
       <path id="DejaVuSans-c5" d="M 2663 5081 
Q 2663 5278 2523 5417 
Q 2384 5556 2188 5556 
Q 1988 5556 1852 5420 
Q 1716 5284 1716 5081 
Q 1716 4884 1853 4746 
Q 1991 4609 2188 4609 
Q 2384 4609 2523 4746 
Q 2663 4884 2663 5081 
z
M 2188 4044 
L 1338 1722 
L 3041 1722 
L 2188 4044 
z
M 1716 4366 
Q 1525 4494 1428 4673 
Q 1331 4853 1331 5081 
Q 1331 5441 1579 5691 
Q 1828 5941 2188 5941 
Q 2544 5941 2795 5689 
Q 3047 5438 3047 5081 
Q 3047 4863 2948 4678 
Q 2850 4494 2663 4366 
L 4325 0 
L 3669 0 
L 3244 1197 
L 1141 1197 
L 716 0 
L 50 0 
L 1716 4366 
z
" transform="scale(0.015625)"/>
       <path id="DejaVuSans-29" d="M 513 4856 
L 1013 4856 
Q 1481 4119 1714 3412 
Q 1947 2706 1947 2009 
Q 1947 1309 1714 600 
Q 1481 -109 1013 -844 
L 513 -844 
Q 928 -128 1133 580 
Q 1338 1288 1338 2009 
Q 1338 2731 1133 3434 
Q 928 4138 513 4856 
z
" transform="scale(0.015625)"/>
      </defs>
      <use xlink:href="#Helvetica-61" transform="translate(0 0.171875)"/>
      <use xlink:href="#Helvetica-20" transform="translate(55.615234 0.171875)"/>
      <use xlink:href="#DejaVuSans-28" transform="translate(83.398438 0.171875)"/>
      <use xlink:href="#DejaVuSans-c5" transform="translate(122.412109 0.171875)"/>
      <use xlink:href="#DejaVuSans-29" transform="translate(190.820312 0.171875)"/>
     </g>
    </g>
   </g>
   <g id="matplotlib.axis_2">
    <g id="ytick_1">
     <g id="line2d_19">
      <defs>
       <path id="m98bdf8352e" d="M 0 0 
L 8 0 
" style="stroke: #000000; stroke-width: 1.5"/>
      </defs>
      <g>
       <use xlink:href="#m98bdf8352e" x="65.52" y="396.288" style="stroke: #000000; stroke-width: 1.5"/>
      </g>
     </g>
     <g id="line2d_20">
      <defs>
       <path id="m163a21a2be" d="M 0 0 
L -8 0 
" style="stroke: #000000; stroke-width: 1.5"/>
      </defs>
      <g>
       <use xlink:href="#m163a21a2be" x="398.32" y="396.288" style="stroke: #000000; stroke-width: 1.5"/>
      </g>
     </g>
     <g id="text_6">
      <!-- −6 -->
      <g transform="translate(41.497188 402.744094) scale(0.18 -0.18)">
       <defs>
        <path id="Helvetica-2212" d="M 3547 1894 
L 3547 1369 
L 288 1369 
L 288 1894 
L 3547 1894 
z
" transform="scale(0.015625)"/>
        <path id="Helvetica-36" d="M 1872 4494 
Q 2622 4494 2917 4105 
Q 3213 3716 3213 3303 
L 2656 3303 
Q 2606 3569 2497 3719 
Q 2294 4000 1881 4000 
Q 1409 4000 1131 3564 
Q 853 3128 822 2316 
Q 1016 2600 1309 2741 
Q 1578 2866 1909 2866 
Q 2472 2866 2890 2506 
Q 3309 2147 3309 1434 
Q 3309 825 2912 354 
Q 2516 -116 1781 -116 
Q 1153 -116 697 361 
Q 241 838 241 1966 
Q 241 2800 444 3381 
Q 834 4494 1872 4494 
z
M 1831 384 
Q 2275 384 2495 682 
Q 2716 981 2716 1388 
Q 2716 1731 2519 2042 
Q 2322 2353 1803 2353 
Q 1441 2353 1167 2112 
Q 894 1872 894 1388 
Q 894 963 1142 673 
Q 1391 384 1831 384 
z
" transform="scale(0.015625)"/>
       </defs>
       <use xlink:href="#Helvetica-2212"/>
       <use xlink:href="#Helvetica-36" x="58.398438"/>
      </g>
     </g>
    </g>
    <g id="ytick_2">
     <g id="line2d_21">
      <g>
       <use xlink:href="#m98bdf8352e" x="65.52" y="342.966857" style="stroke: #000000; stroke-width: 1.5"/>
      </g>
     </g>
     <g id="line2d_22">
      <g>
       <use xlink:href="#m163a21a2be" x="398.32" y="342.966857" style="stroke: #000000; stroke-width: 1.5"/>
      </g>
     </g>
     <g id="text_7">
      <!-- −5 -->
      <g transform="translate(41.497188 349.422951) scale(0.18 -0.18)">
       <use xlink:href="#Helvetica-2212"/>
       <use xlink:href="#Helvetica-35" x="58.398438"/>
      </g>
     </g>
    </g>
    <g id="ytick_3">
     <g id="line2d_23">
      <g>
       <use xlink:href="#m98bdf8352e" x="65.52" y="289.645714" style="stroke: #000000; stroke-width: 1.5"/>
      </g>
     </g>
     <g id="line2d_24">
      <g>
       <use xlink:href="#m163a21a2be" x="398.32" y="289.645714" style="stroke: #000000; stroke-width: 1.5"/>
      </g>
     </g>
     <g id="text_8">
      <!-- −4 -->
      <g transform="translate(41.497188 296.101808) scale(0.18 -0.18)">
       <use xlink:href="#Helvetica-2212"/>
       <use xlink:href="#Helvetica-34" x="58.398438"/>
      </g>
     </g>
    </g>
    <g id="ytick_4">
     <g id="line2d_25">
      <g>
       <use xlink:href="#m98bdf8352e" x="65.52" y="236.324571" style="stroke: #000000; stroke-width: 1.5"/>
      </g>
     </g>
     <g id="line2d_26">
      <g>
       <use xlink:href="#m163a21a2be" x="398.32" y="236.324571" style="stroke: #000000; stroke-width: 1.5"/>
      </g>
     </g>
     <g id="text_9">
      <!-- −3 -->
      <g transform="translate(41.497188 242.780665) scale(0.18 -0.18)">
       <use xlink:href="#Helvetica-2212"/>
       <use xlink:href="#Helvetica-33" x="58.398438"/>
      </g>
     </g>
    </g>
    <g id="ytick_5">
     <g id="line2d_27">
      <g>
       <use xlink:href="#m98bdf8352e" x="65.52" y="183.003429" style="stroke: #000000; stroke-width: 1.5"/>
      </g>
     </g>
     <g id="line2d_28">
      <g>
       <use xlink:href="#m163a21a2be" x="398.32" y="183.003429" style="stroke: #000000; stroke-width: 1.5"/>
      </g>
     </g>
     <g id="text_10">
      <!-- −2 -->
      <g transform="translate(41.497188 189.459522) scale(0.18 -0.18)">
       <defs>
        <path id="Helvetica-32" d="M 200 0 
Q 231 578 439 1006 
Q 647 1434 1250 1784 
L 1850 2131 
Q 2253 2366 2416 2531 
Q 2672 2791 2672 3125 
Q 2672 3516 2437 3745 
Q 2203 3975 1813 3975 
Q 1234 3975 1013 3538 
Q 894 3303 881 2888 
L 309 2888 
Q 319 3472 525 3841 
Q 891 4491 1816 4491 
Q 2584 4491 2939 4075 
Q 3294 3659 3294 3150 
Q 3294 2613 2916 2231 
Q 2697 2009 2131 1694 
L 1703 1456 
Q 1397 1288 1222 1134 
Q 909 863 828 531 
L 3272 531 
L 3272 0 
L 200 0 
z
" transform="scale(0.015625)"/>
       </defs>
       <use xlink:href="#Helvetica-2212"/>
       <use xlink:href="#Helvetica-32" x="58.398438"/>
      </g>
     </g>
    </g>
    <g id="ytick_6">
     <g id="line2d_29">
      <g>
       <use xlink:href="#m98bdf8352e" x="65.52" y="129.682286" style="stroke: #000000; stroke-width: 1.5"/>
      </g>
     </g>
     <g id="line2d_30">
      <g>
       <use xlink:href="#m163a21a2be" x="398.32" y="129.682286" style="stroke: #000000; stroke-width: 1.5"/>
      </g>
     </g>
     <g id="text_11">
      <!-- −1 -->
      <g transform="translate(41.497188 136.138379) scale(0.18 -0.18)">
       <defs>
        <path id="Helvetica-31" d="M 613 3169 
L 613 3600 
Q 1222 3659 1462 3798 
Q 1703 3938 1822 4456 
L 2266 4456 
L 2266 0 
L 1666 0 
L 1666 3169 
L 613 3169 
z
" transform="scale(0.015625)"/>
       </defs>
       <use xlink:href="#Helvetica-2212"/>
       <use xlink:href="#Helvetica-31" x="58.398438"/>
      </g>
     </g>
    </g>
    <g id="ytick_7">
     <g id="line2d_31">
      <g>
       <use xlink:href="#m98bdf8352e" x="65.52" y="76.361143" style="stroke: #000000; stroke-width: 1.5"/>
      </g>
     </g>
     <g id="line2d_32">
      <g>
       <use xlink:href="#m163a21a2be" x="398.32" y="76.361143" style="stroke: #000000; stroke-width: 1.5"/>
      </g>
     </g>
     <g id="text_12">
      <!-- 0 -->
      <g transform="translate(52.010313 82.817237) scale(0.18 -0.18)">
       <use xlink:href="#Helvetica-30"/>
      </g>
     </g>
    </g>
    <g id="ytick_8">
     <g id="line2d_33">
      <g>
       <use xlink:href="#m98bdf8352e" x="65.52" y="23.04" style="stroke: #000000; stroke-width: 1.5"/>
      </g>
     </g>
     <g id="line2d_34">
      <g>
       <use xlink:href="#m163a21a2be" x="398.32" y="23.04" style="stroke: #000000; stroke-width: 1.5"/>
      </g>
     </g>
     <g id="text_13">
      <!-- 1 -->
      <g transform="translate(52.010313 29.496094) scale(0.18 -0.18)">
       <use xlink:href="#Helvetica-31"/>
      </g>
     </g>
    </g>
    <g id="ytick_9">
     <g id="line2d_35">
      <defs>
       <path id="m699b4d204d" d="M 0 0 
L 4 0 
" style="stroke: #000000; stroke-width: 1.5"/>
      </defs>
      <g>
       <use xlink:href="#m699b4d204d" x="65.52" y="369.627429" style="stroke: #000000; stroke-width: 1.5"/>
      </g>
     </g>
     <g id="line2d_36">
      <defs>
       <path id="m96899993aa" d="M 0 0 
L -4 0 
" style="stroke: #000000; stroke-width: 1.5"/>
      </defs>
      <g>
       <use xlink:href="#m96899993aa" x="398.32" y="369.627429" style="stroke: #000000; stroke-width: 1.5"/>
      </g>
     </g>
    </g>
    <g id="ytick_10">
     <g id="line2d_37">
      <g>
       <use xlink:href="#m699b4d204d" x="65.52" y="316.306286" style="stroke: #000000; stroke-width: 1.5"/>
      </g>
     </g>
     <g id="line2d_38">
      <g>
       <use xlink:href="#m96899993aa" x="398.32" y="316.306286" style="stroke: #000000; stroke-width: 1.5"/>
      </g>
     </g>
    </g>
    <g id="ytick_11">
     <g id="line2d_39">
      <g>
       <use xlink:href="#m699b4d204d" x="65.52" y="262.985143" style="stroke: #000000; stroke-width: 1.5"/>
      </g>
     </g>
     <g id="line2d_40">
      <g>
       <use xlink:href="#m96899993aa" x="398.32" y="262.985143" style="stroke: #000000; stroke-width: 1.5"/>
      </g>
     </g>
    </g>
    <g id="ytick_12">
     <g id="line2d_41">
      <g>
       <use xlink:href="#m699b4d204d" x="65.52" y="209.664" style="stroke: #000000; stroke-width: 1.5"/>
      </g>
     </g>
     <g id="line2d_42">
      <g>
       <use xlink:href="#m96899993aa" x="398.32" y="209.664" style="stroke: #000000; stroke-width: 1.5"/>
      </g>
     </g>
    </g>
    <g id="ytick_13">
     <g id="line2d_43">
      <g>
       <use xlink:href="#m699b4d204d" x="65.52" y="156.342857" style="stroke: #000000; stroke-width: 1.5"/>
      </g>
     </g>
     <g id="line2d_44">
      <g>
       <use xlink:href="#m96899993aa" x="398.32" y="156.342857" style="stroke: #000000; stroke-width: 1.5"/>
      </g>
     </g>
    </g>
    <g id="ytick_14">
     <g id="line2d_45">
      <g>
       <use xlink:href="#m699b4d204d" x="65.52" y="103.021714" style="stroke: #000000; stroke-width: 1.5"/>
      </g>
     </g>
     <g id="line2d_46">
      <g>
       <use xlink:href="#m96899993aa" x="398.32" y="103.021714" style="stroke: #000000; stroke-width: 1.5"/>
      </g>
     </g>
    </g>
    <g id="ytick_15">
     <g id="line2d_47">
      <g>
       <use xlink:href="#m699b4d204d" x="65.52" y="49.700571" style="stroke: #000000; stroke-width: 1.5"/>
      </g>
     </g>
     <g id="line2d_48">
      <g>
       <use xlink:href="#m96899993aa" x="398.32" y="49.700571" style="stroke: #000000; stroke-width: 1.5"/>
      </g>
     </g>
    </g>
    <g id="text_14">
     <!-- Energy  (eV/atom) -->
     <g transform="translate(33.072188 290.8015) rotate(-90) scale(0.2 -0.2)">
      <defs>
       <path id="Helvetica-45" d="M 547 4591 
L 3894 4591 
L 3894 4028 
L 1153 4028 
L 1153 2634 
L 3688 2634 
L 3688 2103 
L 1153 2103 
L 1153 547 
L 3941 547 
L 3941 0 
L 547 0 
L 547 4591 
z
M 2244 4591 
L 2244 4591 
z
" transform="scale(0.015625)"/>
       <path id="Helvetica-6e" d="M 413 3347 
L 947 3347 
L 947 2872 
Q 1184 3166 1450 3294 
Q 1716 3422 2041 3422 
Q 2753 3422 3003 2925 
Q 3141 2653 3141 2147 
L 3141 0 
L 2569 0 
L 2569 2109 
Q 2569 2416 2478 2603 
Q 2328 2916 1934 2916 
Q 1734 2916 1606 2875 
Q 1375 2806 1200 2600 
Q 1059 2434 1017 2257 
Q 975 2081 975 1753 
L 975 0 
L 413 0 
L 413 3347 
z
M 1734 3428 
L 1734 3428 
z
" transform="scale(0.015625)"/>
       <path id="Helvetica-65" d="M 1806 3422 
Q 2163 3422 2497 3255 
Q 2831 3088 3006 2822 
Q 3175 2569 3231 2231 
Q 3281 2000 3281 1494 
L 828 1494 
Q 844 984 1069 676 
Q 1294 369 1766 369 
Q 2206 369 2469 659 
Q 2619 828 2681 1050 
L 3234 1050 
Q 3213 866 3089 639 
Q 2966 413 2813 269 
Q 2556 19 2178 -69 
Q 1975 -119 1719 -119 
Q 1094 -119 659 336 
Q 225 791 225 1609 
Q 225 2416 662 2919 
Q 1100 3422 1806 3422 
z
M 2703 1941 
Q 2669 2306 2544 2525 
Q 2313 2931 1772 2931 
Q 1384 2931 1121 2651 
Q 859 2372 844 1941 
L 2703 1941 
z
M 1753 3428 
L 1753 3428 
z
" transform="scale(0.015625)"/>
       <path id="Helvetica-72" d="M 428 3347 
L 963 3347 
L 963 2769 
Q 1028 2938 1284 3180 
Q 1541 3422 1875 3422 
Q 1891 3422 1928 3419 
Q 1966 3416 2056 3406 
L 2056 2813 
Q 2006 2822 1964 2825 
Q 1922 2828 1872 2828 
Q 1447 2828 1219 2554 
Q 991 2281 991 1925 
L 991 0 
L 428 0 
L 428 3347 
z
" transform="scale(0.015625)"/>
       <path id="Helvetica-67" d="M 1594 3406 
Q 1988 3406 2281 3213 
Q 2441 3103 2606 2894 
L 2606 3316 
L 3125 3316 
L 3125 272 
Q 3125 -366 2938 -734 
Q 2588 -1416 1616 -1416 
Q 1075 -1416 706 -1173 
Q 338 -931 294 -416 
L 866 -416 
Q 906 -641 1028 -763 
Q 1219 -950 1628 -950 
Q 2275 -950 2475 -494 
Q 2594 -225 2584 466 
Q 2416 209 2178 84 
Q 1941 -41 1550 -41 
Q 1006 -41 598 345 
Q 191 731 191 1622 
Q 191 2463 602 2934 
Q 1013 3406 1594 3406 
z
M 2606 1688 
Q 2606 2309 2350 2609 
Q 2094 2909 1697 2909 
Q 1103 2909 884 2353 
Q 769 2056 769 1575 
Q 769 1009 998 714 
Q 1228 419 1616 419 
Q 2222 419 2469 966 
Q 2606 1275 2606 1688 
z
M 1659 3428 
L 1659 3428 
z
" transform="scale(0.015625)"/>
       <path id="Helvetica-79" d="M 2503 3347 
L 3125 3347 
Q 3006 3025 2597 1878 
Q 2291 1016 2084 472 
Q 1597 -809 1397 -1090 
Q 1197 -1372 709 -1372 
Q 591 -1372 527 -1362 
Q 463 -1353 369 -1328 
L 369 -816 
Q 516 -856 581 -865 
Q 647 -875 697 -875 
Q 853 -875 926 -823 
Q 1000 -772 1050 -697 
Q 1066 -672 1162 -440 
Q 1259 -209 1303 -97 
L 66 3347 
L 703 3347 
L 1600 622 
L 2503 3347 
z
M 1597 3428 
L 1597 3428 
z
" transform="scale(0.015625)"/>
       <path id="Helvetica-28" d="M 1894 4666 
Q 1403 3713 1256 3263 
Q 1034 2578 1034 1681 
Q 1034 775 1288 25 
Q 1444 -438 1903 -1306 
L 1525 -1306 
Q 1069 -594 959 -397 
Q 850 -200 722 138 
Q 547 600 478 1125 
Q 444 1397 444 1644 
Q 444 2569 734 3291 
Q 919 3750 1503 4666 
L 1894 4666 
z
" transform="scale(0.015625)"/>
       <path id="Helvetica-56" d="M 850 4591 
L 2169 681 
L 3472 4591 
L 4169 4591 
L 2494 0 
L 1834 0 
L 163 4591 
L 850 4591 
z
" transform="scale(0.015625)"/>
       <path id="Helvetica-2f" d="M 1456 4591 
L 1931 4591 
L 475 0 
L 0 0 
L 1456 4591 
z
" transform="scale(0.015625)"/>
       <path id="Helvetica-74" d="M 525 4281 
L 1094 4281 
L 1094 3347 
L 1628 3347 
L 1628 2888 
L 1094 2888 
L 1094 703 
Q 1094 528 1213 469 
Q 1278 434 1431 434 
Q 1472 434 1519 436 
Q 1566 438 1628 444 
L 1628 0 
Q 1531 -28 1426 -40 
Q 1322 -53 1200 -53 
Q 806 -53 665 148 
Q 525 350 525 672 
L 525 2888 
L 72 2888 
L 72 3347 
L 525 3347 
L 525 4281 
z
" transform="scale(0.015625)"/>
       <path id="Helvetica-6f" d="M 1741 363 
Q 2300 363 2508 786 
Q 2716 1209 2716 1728 
Q 2716 2197 2566 2491 
Q 2328 2953 1747 2953 
Q 1231 2953 997 2559 
Q 763 2166 763 1609 
Q 763 1075 997 719 
Q 1231 363 1741 363 
z
M 1763 3444 
Q 2409 3444 2856 3012 
Q 3303 2581 3303 1744 
Q 3303 934 2909 406 
Q 2516 -122 1688 -122 
Q 997 -122 590 345 
Q 184 813 184 1600 
Q 184 2444 612 2944 
Q 1041 3444 1763 3444 
z
M 1744 3428 
L 1744 3428 
z
" transform="scale(0.015625)"/>
       <path id="Helvetica-6d" d="M 413 3347 
L 969 3347 
L 969 2872 
Q 1169 3119 1331 3231 
Q 1609 3422 1963 3422 
Q 2363 3422 2606 3225 
Q 2744 3113 2856 2894 
Q 3044 3163 3297 3292 
Q 3550 3422 3866 3422 
Q 4541 3422 4784 2934 
Q 4916 2672 4916 2228 
L 4916 0 
L 4331 0 
L 4331 2325 
Q 4331 2659 4164 2784 
Q 3997 2909 3756 2909 
Q 3425 2909 3186 2687 
Q 2947 2466 2947 1947 
L 2947 0 
L 2375 0 
L 2375 2184 
Q 2375 2525 2294 2681 
Q 2166 2916 1816 2916 
Q 1497 2916 1236 2669 
Q 975 2422 975 1775 
L 975 0 
L 413 0 
L 413 3347 
z
" transform="scale(0.015625)"/>
       <path id="Helvetica-29" d="M 222 -1306 
Q 719 -338 863 106 
Q 1081 778 1081 1681 
Q 1081 2584 828 3334 
Q 672 3797 213 4666 
L 591 4666 
Q 1072 3897 1173 3717 
Q 1275 3538 1394 3222 
Q 1544 2831 1608 2450 
Q 1672 2069 1672 1716 
Q 1672 791 1378 66 
Q 1194 -400 613 -1306 
L 222 -1306 
z
" transform="scale(0.015625)"/>
      </defs>
      <use xlink:href="#Helvetica-45"/>
      <use xlink:href="#Helvetica-6e" x="66.699219"/>
      <use xlink:href="#Helvetica-65" x="122.314453"/>
      <use xlink:href="#Helvetica-72" x="177.929688"/>
      <use xlink:href="#Helvetica-67" x="211.230469"/>
      <use xlink:href="#Helvetica-79" x="266.845703"/>
      <use xlink:href="#Helvetica-20" x="316.845703"/>
      <use xlink:href="#Helvetica-20" x="344.628906"/>
      <use xlink:href="#Helvetica-28" x="372.412109"/>
      <use xlink:href="#Helvetica-65" x="405.712891"/>
      <use xlink:href="#Helvetica-56" x="461.328125"/>
      <use xlink:href="#Helvetica-2f" x="528.027344"/>
      <use xlink:href="#Helvetica-61" x="555.810547"/>
      <use xlink:href="#Helvetica-74" x="611.425781"/>
      <use xlink:href="#Helvetica-6f" x="639.208984"/>
      <use xlink:href="#Helvetica-6d" x="694.824219"/>
      <use xlink:href="#Helvetica-29" x="778.125"/>
     </g>
    </g>
   </g>
   <g id="line2d_49">
    <path d="M 122.85435 -1 
L 126.646531 53.083587 
L 133.438367 127.75549 
L 140.230204 184.985906 
L 147.022041 228.485864 
L 153.813878 261.141743 
L 160.605714 285.076599 
L 167.397551 302.021679 
L 174.189388 313.502514 
L 180.981224 320.818702 
L 187.773061 325.017012 
L 194.564898 326.879023 
L 201.356735 326.90661 
L 208.148571 325.355985 
L 214.940408 322.459486 
L 221.732245 318.499845 
L 228.524082 313.768948 
L 235.315918 308.538642 
L 242.107755 303.035826 
L 248.899592 297.423325 
L 255.691429 291.781812 
L 262.483265 286.108023 
L 269.275102 280.407129 
L 276.066939 274.723423 
L 282.858776 269.036171 
L 289.650612 263.161036 
L 296.442449 257.046737 
L 303.234286 250.786127 
L 310.026122 244.549175 
L 316.817959 238.526928 
L 323.609796 232.884654 
L 330.401633 227.72062 
L 337.193469 223.030759 
L 343.985306 218.682413 
L 350.777143 214.498875 
L 357.56898 210.452318 
L 364.360816 206.540439 
L 371.152653 202.76048 
L 377.94449 199.109226 
L 384.736327 195.58323 
L 391.528163 192.178882 
L 398.32 188.892407 
" clip-path="url(#pc4ae10ccde)" style="fill: none; stroke: #1f77b4; stroke-width: 2.5; stroke-linecap: square"/>
   </g>
   <g id="line2d_50">
    <path d="M 104.493763 -1 
L 106.27102 21.377986 
L 113.062857 91.165142 
L 119.854694 147.812194 
L 126.646531 193.49666 
L 133.438367 230.039362 
L 140.230204 258.972414 
L 147.022041 281.571693 
L 153.813878 298.895614 
L 160.605714 311.708974 
L 167.397551 320.730984 
L 174.189388 326.70285 
L 180.981224 330.287973 
L 187.773061 332.025552 
L 194.564898 332.305512 
L 201.356735 331.367311 
L 208.148571 329.329431 
L 214.940408 326.316967 
L 221.732245 322.518728 
L 228.524082 318.140329 
L 235.315918 313.370988 
L 242.107755 308.362088 
L 248.899592 303.216322 
L 255.691429 297.984491 
L 262.483265 292.67173 
L 269.275102 287.293754 
L 276.066939 281.888991 
L 282.858776 276.447895 
L 289.650612 270.847916 
L 296.442449 265.080865 
L 303.234286 259.240869 
L 310.026122 253.462517 
L 316.817959 247.875479 
L 323.609796 242.574935 
L 330.401633 237.602063 
L 337.193469 232.934449 
L 343.985306 228.482558 
L 350.777143 224.147701 
L 357.56898 219.917024 
L 364.360816 215.791406 
L 371.152653 211.771164 
L 377.94449 207.855853 
L 384.736327 204.044761 
L 391.528163 200.336693 
L 398.32 196.730263 
" clip-path="url(#pc4ae10ccde)" style="fill: none; stroke: #ff7f0e; stroke-width: 2.5; stroke-linecap: square"/>
   </g>
   <g id="line2d_51">
    <path d="M 103.870786 -1 
L 106.27102 28.985093 
L 113.062857 98.405664 
L 119.854694 154.936852 
L 126.646531 200.715698 
L 133.438367 237.5318 
L 140.230204 266.890983 
L 147.022041 290.053997 
L 153.813878 308.005876 
L 160.605714 320.868994 
L 167.397551 328.842736 
L 174.189388 332.792436 
L 180.981224 334.007063 
L 187.773061 333.889241 
L 194.564898 333.522783 
L 201.356735 333.108475 
L 208.148571 331.785306 
L 214.940408 329.079931 
L 221.732245 325.013834 
L 228.524082 319.899011 
L 235.315918 314.237235 
L 242.107755 308.595824 
L 248.899592 303.44449 
L 255.691429 298.946465 
L 262.483265 294.763131 
L 269.275102 290.602171 
L 276.066939 286.49027 
L 282.858776 282.245952 
L 289.650612 277.012342 
L 296.442449 270.294428 
L 303.234286 262.137495 
L 310.026122 253.005697 
L 316.817959 243.670139 
L 323.609796 235.060314 
L 330.401633 228.019395 
L 337.193469 222.928993 
L 343.985306 219.259152 
L 350.777143 215.923059 
L 357.56898 212.741897 
L 364.360816 209.713669 
L 371.152653 206.835832 
L 377.94449 204.105172 
L 384.736327 201.518 
L 391.528163 199.070376 
L 398.32 196.758002 
" clip-path="url(#pc4ae10ccde)" style="fill: none; stroke: #d62728; stroke-width: 2.5; stroke-linecap: square"/>
   </g>
   <g id="line2d_52">
    <path d="M 65.52 76.361143 
L 398.32 76.361143 
" clip-path="url(#pc4ae10ccde)" style="fill: none; stroke: #808080; stroke-width: 1.5; stroke-linecap: square"/>
   </g>
   <g id="patch_3">
    <path d="M 65.52 396.288 
L 65.52 23.04 
" style="fill: none; stroke: #000000; stroke-width: 1.5; stroke-linejoin: miter; stroke-linecap: square"/>
   </g>
   <g id="patch_4">
    <path d="M 398.32 396.288 
L 398.32 23.04 
" style="fill: none; stroke: #000000; stroke-width: 1.5; stroke-linejoin: miter; stroke-linecap: square"/>
   </g>
   <g id="patch_5">
    <path d="M 65.52 396.288 
L 398.32 396.288 
" style="fill: none; stroke: #000000; stroke-width: 1.5; stroke-linejoin: miter; stroke-linecap: square"/>
   </g>
   <g id="patch_6">
    <path d="M 65.52 23.04 
L 398.32 23.04 
" style="fill: none; stroke: #000000; stroke-width: 1.5; stroke-linejoin: miter; stroke-linecap: square"/>
   </g>
   <g id="text_15">
    <!-- Ni -->
    <g transform="translate(220.5875 61.82976) scale(0.24 -0.24)">
     <defs>
      <path id="Helvetica-4e" d="M 488 4591 
L 1222 4591 
L 3541 872 
L 3541 4591 
L 4131 4591 
L 4131 0 
L 3434 0 
L 1081 3716 
L 1081 0 
L 488 0 
L 488 4591 
z
M 2269 4591 
L 2269 4591 
z
" transform="scale(0.015625)"/>
      <path id="Helvetica-69" d="M 413 3331 
L 984 3331 
L 984 0 
L 413 0 
L 413 3331 
z
M 413 4591 
L 984 4591 
L 984 3953 
L 413 3953 
L 413 4591 
z
" transform="scale(0.015625)"/>
     </defs>
     <use xlink:href="#Helvetica-4e"/>
     <use xlink:href="#Helvetica-69" x="72.216797"/>
    </g>
   </g>
   <g id="line2d_53">
    <path d="M 131.74542 214.880465 
L 138.666747 244.078898 
L 145.588075 267.887863 
L 152.509402 287.081382 
L 159.43073 302.325952 
L 166.352058 314.14632 
L 173.273385 322.982079 
L 180.194713 329.255531 
L 187.11604 333.339498 
L 194.037368 335.570416 
L 200.958695 336.231755 
L 207.880023 335.567086 
L 214.80135 333.777871 
L 221.722678 331.046538 
L 228.644006 327.538073 
L 235.565333 323.399275 
L 242.486661 318.761767 
L 249.407988 313.697 
L 256.329316 308.277651 
L 263.250643 302.585547 
L 270.171971 296.682498 
" clip-path="url(#pc4ae10ccde)" style="fill: none; stroke-dasharray: 9.25,4; stroke-dashoffset: 0; stroke: #000000; stroke-width: 2.5"/>
   </g>
  </g>
  <g id="axes_2">
   <g id="patch_7">
    <path d="M 406.64 396.288 
L 739.44 396.288 
L 739.44 23.04 
L 406.64 23.04 
z
" style="fill: #ffffff"/>
   </g>
   <g id="matplotlib.axis_3">
    <g id="xtick_10">
     <g id="line2d_54">
      <g>
       <use xlink:href="#m0c8a15ac6b" x="469.543183" y="396.288" style="stroke: #000000; stroke-width: 1.5"/>
      </g>
     </g>
     <g id="line2d_55">
      <g>
       <use xlink:href="#m82f04ff506" x="469.543183" y="23.04" style="stroke: #000000; stroke-width: 1.5"/>
      </g>
     </g>
     <g id="text_16">
      <!-- 3.0 -->
      <g transform="translate(457.033183 412.700187) scale(0.18 -0.18)">
       <use xlink:href="#Helvetica-33"/>
       <use xlink:href="#Helvetica-2e" x="55.615234"/>
       <use xlink:href="#Helvetica-30" x="83.398438"/>
      </g>
     </g>
    </g>
    <g id="xtick_11">
     <g id="line2d_56">
      <g>
       <use xlink:href="#m0c8a15ac6b" x="538.756458" y="396.288" style="stroke: #000000; stroke-width: 1.5"/>
      </g>
     </g>
     <g id="line2d_57">
      <g>
       <use xlink:href="#m82f04ff506" x="538.756458" y="23.04" style="stroke: #000000; stroke-width: 1.5"/>
      </g>
     </g>
     <g id="text_17">
      <!-- 3.5 -->
      <g transform="translate(526.246458 412.700187) scale(0.18 -0.18)">
       <use xlink:href="#Helvetica-33"/>
       <use xlink:href="#Helvetica-2e" x="55.615234"/>
       <use xlink:href="#Helvetica-35" x="83.398438"/>
      </g>
     </g>
    </g>
    <g id="xtick_12">
     <g id="line2d_58">
      <g>
       <use xlink:href="#m0c8a15ac6b" x="607.969734" y="396.288" style="stroke: #000000; stroke-width: 1.5"/>
      </g>
     </g>
     <g id="line2d_59">
      <g>
       <use xlink:href="#m82f04ff506" x="607.969734" y="23.04" style="stroke: #000000; stroke-width: 1.5"/>
      </g>
     </g>
     <g id="text_18">
      <!-- 4.0 -->
      <g transform="translate(595.459734 412.700187) scale(0.18 -0.18)">
       <use xlink:href="#Helvetica-34"/>
       <use xlink:href="#Helvetica-2e" x="55.615234"/>
       <use xlink:href="#Helvetica-30" x="83.398438"/>
      </g>
     </g>
    </g>
    <g id="xtick_13">
     <g id="line2d_60">
      <g>
       <use xlink:href="#m0c8a15ac6b" x="677.183009" y="396.288" style="stroke: #000000; stroke-width: 1.5"/>
      </g>
     </g>
     <g id="line2d_61">
      <g>
       <use xlink:href="#m82f04ff506" x="677.183009" y="23.04" style="stroke: #000000; stroke-width: 1.5"/>
      </g>
     </g>
     <g id="text_19">
      <!-- 4.5 -->
      <g transform="translate(664.673009 412.700187) scale(0.18 -0.18)">
       <use xlink:href="#Helvetica-34"/>
       <use xlink:href="#Helvetica-2e" x="55.615234"/>
       <use xlink:href="#Helvetica-35" x="83.398438"/>
      </g>
     </g>
    </g>
    <g id="xtick_14">
     <g id="line2d_62">
      <g>
       <use xlink:href="#ma969ed9316" x="434.936545" y="396.288" style="stroke: #000000; stroke-width: 1.5"/>
      </g>
     </g>
     <g id="line2d_63">
      <g>
       <use xlink:href="#mbf68d1f3a3" x="434.936545" y="23.04" style="stroke: #000000; stroke-width: 1.5"/>
      </g>
     </g>
    </g>
    <g id="xtick_15">
     <g id="line2d_64">
      <g>
       <use xlink:href="#ma969ed9316" x="504.14982" y="396.288" style="stroke: #000000; stroke-width: 1.5"/>
      </g>
     </g>
     <g id="line2d_65">
      <g>
       <use xlink:href="#mbf68d1f3a3" x="504.14982" y="23.04" style="stroke: #000000; stroke-width: 1.5"/>
      </g>
     </g>
    </g>
    <g id="xtick_16">
     <g id="line2d_66">
      <g>
       <use xlink:href="#ma969ed9316" x="573.363096" y="396.288" style="stroke: #000000; stroke-width: 1.5"/>
      </g>
     </g>
     <g id="line2d_67">
      <g>
       <use xlink:href="#mbf68d1f3a3" x="573.363096" y="23.04" style="stroke: #000000; stroke-width: 1.5"/>
      </g>
     </g>
    </g>
    <g id="xtick_17">
     <g id="line2d_68">
      <g>
       <use xlink:href="#ma969ed9316" x="642.576371" y="396.288" style="stroke: #000000; stroke-width: 1.5"/>
      </g>
     </g>
     <g id="line2d_69">
      <g>
       <use xlink:href="#mbf68d1f3a3" x="642.576371" y="23.04" style="stroke: #000000; stroke-width: 1.5"/>
      </g>
     </g>
    </g>
    <g id="xtick_18">
     <g id="line2d_70">
      <g>
       <use xlink:href="#ma969ed9316" x="711.789647" y="396.288" style="stroke: #000000; stroke-width: 1.5"/>
      </g>
     </g>
     <g id="line2d_71">
      <g>
       <use xlink:href="#mbf68d1f3a3" x="711.789647" y="23.04" style="stroke: #000000; stroke-width: 1.5"/>
      </g>
     </g>
    </g>
    <g id="text_20">
     <!-- a $(\mathrm{\AA})$ -->
     <g transform="translate(550.04 437.683312) scale(0.2 -0.2)">
      <use xlink:href="#Helvetica-61" transform="translate(0 0.171875)"/>
      <use xlink:href="#Helvetica-20" transform="translate(55.615234 0.171875)"/>
      <use xlink:href="#DejaVuSans-28" transform="translate(83.398438 0.171875)"/>
      <use xlink:href="#DejaVuSans-c5" transform="translate(122.412109 0.171875)"/>
      <use xlink:href="#DejaVuSans-29" transform="translate(190.820312 0.171875)"/>
     </g>
    </g>
   </g>
   <g id="matplotlib.axis_4">
    <g id="ytick_16">
     <g id="line2d_72">
      <g>
       <use xlink:href="#m98bdf8352e" x="406.64" y="396.288" style="stroke: #000000; stroke-width: 1.5"/>
      </g>
     </g>
     <g id="line2d_73">
      <g>
       <use xlink:href="#m163a21a2be" x="739.44" y="396.288" style="stroke: #000000; stroke-width: 1.5"/>
      </g>
     </g>
    </g>
    <g id="ytick_17">
     <g id="line2d_74">
      <g>
       <use xlink:href="#m98bdf8352e" x="406.64" y="342.966857" style="stroke: #000000; stroke-width: 1.5"/>
      </g>
     </g>
     <g id="line2d_75">
      <g>
       <use xlink:href="#m163a21a2be" x="739.44" y="342.966857" style="stroke: #000000; stroke-width: 1.5"/>
      </g>
     </g>
    </g>
    <g id="ytick_18">
     <g id="line2d_76">
      <g>
       <use xlink:href="#m98bdf8352e" x="406.64" y="289.645714" style="stroke: #000000; stroke-width: 1.5"/>
      </g>
     </g>
     <g id="line2d_77">
      <g>
       <use xlink:href="#m163a21a2be" x="739.44" y="289.645714" style="stroke: #000000; stroke-width: 1.5"/>
      </g>
     </g>
    </g>
    <g id="ytick_19">
     <g id="line2d_78">
      <g>
       <use xlink:href="#m98bdf8352e" x="406.64" y="236.324571" style="stroke: #000000; stroke-width: 1.5"/>
      </g>
     </g>
     <g id="line2d_79">
      <g>
       <use xlink:href="#m163a21a2be" x="739.44" y="236.324571" style="stroke: #000000; stroke-width: 1.5"/>
      </g>
     </g>
    </g>
    <g id="ytick_20">
     <g id="line2d_80">
      <g>
       <use xlink:href="#m98bdf8352e" x="406.64" y="183.003429" style="stroke: #000000; stroke-width: 1.5"/>
      </g>
     </g>
     <g id="line2d_81">
      <g>
       <use xlink:href="#m163a21a2be" x="739.44" y="183.003429" style="stroke: #000000; stroke-width: 1.5"/>
      </g>
     </g>
    </g>
    <g id="ytick_21">
     <g id="line2d_82">
      <g>
       <use xlink:href="#m98bdf8352e" x="406.64" y="129.682286" style="stroke: #000000; stroke-width: 1.5"/>
      </g>
     </g>
     <g id="line2d_83">
      <g>
       <use xlink:href="#m163a21a2be" x="739.44" y="129.682286" style="stroke: #000000; stroke-width: 1.5"/>
      </g>
     </g>
    </g>
    <g id="ytick_22">
     <g id="line2d_84">
      <g>
       <use xlink:href="#m98bdf8352e" x="406.64" y="76.361143" style="stroke: #000000; stroke-width: 1.5"/>
      </g>
     </g>
     <g id="line2d_85">
      <g>
       <use xlink:href="#m163a21a2be" x="739.44" y="76.361143" style="stroke: #000000; stroke-width: 1.5"/>
      </g>
     </g>
    </g>
    <g id="ytick_23">
     <g id="line2d_86">
      <g>
       <use xlink:href="#m98bdf8352e" x="406.64" y="23.04" style="stroke: #000000; stroke-width: 1.5"/>
      </g>
     </g>
     <g id="line2d_87">
      <g>
       <use xlink:href="#m163a21a2be" x="739.44" y="23.04" style="stroke: #000000; stroke-width: 1.5"/>
      </g>
     </g>
    </g>
    <g id="ytick_24">
     <g id="line2d_88">
      <g>
       <use xlink:href="#m699b4d204d" x="406.64" y="369.627429" style="stroke: #000000; stroke-width: 1.5"/>
      </g>
     </g>
     <g id="line2d_89">
      <g>
       <use xlink:href="#m96899993aa" x="739.44" y="369.627429" style="stroke: #000000; stroke-width: 1.5"/>
      </g>
     </g>
    </g>
    <g id="ytick_25">
     <g id="line2d_90">
      <g>
       <use xlink:href="#m699b4d204d" x="406.64" y="316.306286" style="stroke: #000000; stroke-width: 1.5"/>
      </g>
     </g>
     <g id="line2d_91">
      <g>
       <use xlink:href="#m96899993aa" x="739.44" y="316.306286" style="stroke: #000000; stroke-width: 1.5"/>
      </g>
     </g>
    </g>
    <g id="ytick_26">
     <g id="line2d_92">
      <g>
       <use xlink:href="#m699b4d204d" x="406.64" y="262.985143" style="stroke: #000000; stroke-width: 1.5"/>
      </g>
     </g>
     <g id="line2d_93">
      <g>
       <use xlink:href="#m96899993aa" x="739.44" y="262.985143" style="stroke: #000000; stroke-width: 1.5"/>
      </g>
     </g>
    </g>
    <g id="ytick_27">
     <g id="line2d_94">
      <g>
       <use xlink:href="#m699b4d204d" x="406.64" y="209.664" style="stroke: #000000; stroke-width: 1.5"/>
      </g>
     </g>
     <g id="line2d_95">
      <g>
       <use xlink:href="#m96899993aa" x="739.44" y="209.664" style="stroke: #000000; stroke-width: 1.5"/>
      </g>
     </g>
    </g>
    <g id="ytick_28">
     <g id="line2d_96">
      <g>
       <use xlink:href="#m699b4d204d" x="406.64" y="156.342857" style="stroke: #000000; stroke-width: 1.5"/>
      </g>
     </g>
     <g id="line2d_97">
      <g>
       <use xlink:href="#m96899993aa" x="739.44" y="156.342857" style="stroke: #000000; stroke-width: 1.5"/>
      </g>
     </g>
    </g>
    <g id="ytick_29">
     <g id="line2d_98">
      <g>
       <use xlink:href="#m699b4d204d" x="406.64" y="103.021714" style="stroke: #000000; stroke-width: 1.5"/>
      </g>
     </g>
     <g id="line2d_99">
      <g>
       <use xlink:href="#m96899993aa" x="739.44" y="103.021714" style="stroke: #000000; stroke-width: 1.5"/>
      </g>
     </g>
    </g>
    <g id="ytick_30">
     <g id="line2d_100">
      <g>
       <use xlink:href="#m699b4d204d" x="406.64" y="49.700571" style="stroke: #000000; stroke-width: 1.5"/>
      </g>
     </g>
     <g id="line2d_101">
      <g>
       <use xlink:href="#m96899993aa" x="739.44" y="49.700571" style="stroke: #000000; stroke-width: 1.5"/>
      </g>
     </g>
    </g>
   </g>
   <g id="line2d_102">
    <path d="M 518.872601 -1 
L 522.101224 45.409357 
L 528.893061 123.006261 
L 535.684898 184.41612 
L 542.476735 232.720812 
L 549.268571 270.300899 
L 556.060408 299.031055 
L 562.852245 320.56315 
L 569.644082 336.340463 
L 576.435918 347.585959 
L 583.227755 355.299878 
L 590.019592 360.245164 
L 596.811429 362.950387 
L 603.603265 363.722864 
L 610.395102 362.81164 
L 617.186939 360.501911 
L 623.978776 357.088918 
L 630.770612 352.856233 
L 637.562449 348.05717 
L 644.354286 342.900725 
L 651.146122 337.53775 
L 657.937959 332.051714 
L 664.729796 326.454494 
L 671.521633 320.752392 
L 678.313469 314.994533 
L 685.105306 309.214859 
L 691.897143 303.300379 
L 698.68898 297.121702 
L 705.480816 290.690931 
L 712.272653 284.115922 
L 719.06449 277.554426 
L 725.856327 271.176884 
L 732.648163 265.133471 
L 739.44 259.525342 
" clip-path="url(#pa6f20b3e23)" style="fill: none; stroke: #1f77b4; stroke-width: 2.5; stroke-linecap: square"/>
   </g>
   <g id="line2d_103">
    <path d="M 489.569721 -1 
L 494.933878 53.920493 
L 501.725714 113.06194 
L 508.517551 163.188267 
L 515.309388 205.497447 
L 522.101224 241.037061 
L 528.893061 270.712843 
L 535.684898 295.314406 
L 542.476735 315.524884 
L 549.268571 331.767966 
L 556.060408 344.361954 
L 562.852245 353.840327 
L 569.644082 360.816729 
L 576.435918 365.868726 
L 583.227755 369.460027 
L 590.019592 371.890705 
L 596.811429 373.278276 
L 603.603265 373.573009 
L 610.395102 372.745409 
L 617.186939 370.90773 
L 623.978776 368.253053 
L 630.770612 364.998716 
L 637.562449 361.347385 
L 644.354286 357.459419 
L 651.146122 353.435121 
L 657.937959 349.304774 
L 664.729796 345.029298 
L 671.521633 340.582911 
L 678.313469 336.001871 
L 685.105306 331.309214 
L 691.897143 326.339875 
L 698.68898 320.927981 
L 705.480816 315.109355 
L 712.272653 309.041635 
L 719.06449 302.93509 
L 725.856327 297.001897 
L 732.648163 291.41238 
L 739.44 286.267008 
" clip-path="url(#pa6f20b3e23)" style="fill: none; stroke: #ff7f0e; stroke-width: 2.5; stroke-linecap: square"/>
   </g>
   <g id="line2d_104">
    <path d="M 486.967849 -1 
L 488.142041 11.458735 
L 494.933878 73.522894 
L 501.725714 126.8986 
L 508.517551 172.72461 
L 515.309388 212.001519 
L 522.101224 245.589675 
L 528.893061 274.24775 
L 535.684898 298.63101 
L 542.476735 319.298918 
L 549.268571 336.045451 
L 556.060408 348.168661 
L 562.852245 355.848764 
L 569.644082 360.037133 
L 576.435918 362.171654 
L 583.227755 363.811853 
L 590.019592 366.130074 
L 596.811429 369.253369 
L 603.603265 371.86294 
L 610.395102 372.961068 
L 617.186939 372.309921 
L 623.978776 370.063705 
L 630.770612 366.672858 
L 637.562449 362.773527 
L 644.354286 359.046657 
L 651.146122 356.028599 
L 657.937959 353.882 
L 664.729796 352.153472 
L 671.521633 350.332574 
L 678.313469 348.419737 
L 685.105306 346.403063 
L 691.897143 343.515234 
L 698.68898 338.751207 
L 705.480816 331.741701 
L 712.272653 322.657805 
L 719.06449 312.107518 
L 725.856327 301.037712 
L 732.648163 290.600264 
L 739.44 281.923417 
" clip-path="url(#pa6f20b3e23)" style="fill: none; stroke: #d62728; stroke-width: 2.5; stroke-linecap: square"/>
   </g>
   <g id="line2d_105">
    <path d="M 406.64 76.361143 
L 739.44 76.361143 
" clip-path="url(#pa6f20b3e23)" style="fill: none; stroke: #808080; stroke-width: 1.5; stroke-linecap: square"/>
   </g>
   <g id="patch_8">
    <path d="M 406.64 396.288 
L 406.64 23.04 
" style="fill: none; stroke: #000000; stroke-width: 1.5; stroke-linejoin: miter; stroke-linecap: square"/>
   </g>
   <g id="patch_9">
    <path d="M 739.44 396.288 
L 739.44 23.04 
" style="fill: none; stroke: #000000; stroke-width: 1.5; stroke-linejoin: miter; stroke-linecap: square"/>
   </g>
   <g id="patch_10">
    <path d="M 406.64 396.288 
L 739.44 396.288 
" style="fill: none; stroke: #000000; stroke-width: 1.5; stroke-linejoin: miter; stroke-linecap: square"/>
   </g>
   <g id="patch_11">
    <path d="M 406.64 23.04 
L 739.44 23.04 
" style="fill: none; stroke: #000000; stroke-width: 1.5; stroke-linejoin: miter; stroke-linecap: square"/>
   </g>
   <g id="text_21">
    <!-- Pt -->
    <g transform="translate(561.701875 61.82976) scale(0.24 -0.24)">
     <defs>
      <path id="Helvetica-50" d="M 547 4591 
L 2613 4591 
Q 3225 4591 3600 4245 
Q 3975 3900 3975 3275 
Q 3975 2738 3640 2339 
Q 3306 1941 2613 1941 
L 1169 1941 
L 1169 0 
L 547 0 
L 547 4591 
z
M 3347 3272 
Q 3347 3778 2972 3959 
Q 2766 4056 2406 4056 
L 1169 4056 
L 1169 2466 
L 2406 2466 
Q 2825 2466 3086 2644 
Q 3347 2822 3347 3272 
z
" transform="scale(0.015625)"/>
     </defs>
     <use xlink:href="#Helvetica-50"/>
     <use xlink:href="#Helvetica-74" x="66.699219"/>
    </g>
   </g>
   <g id="legend_1">
    <g id="patch_12">
     <path d="M 747.76 131.138438 
L 945.262187 131.138438 
L 945.262187 23.04 
L 747.76 23.04 
z
" style="fill: #ffffff; stroke: #000000; stroke-linejoin: miter"/>
    </g>
    <g id="line2d_106">
     <path d="M 754.96 36.852188 
L 763.96 36.852188 
L 772.96 36.852188 
" style="fill: none; stroke-dasharray: 9.25,4; stroke-dashoffset: 0; stroke: #000000; stroke-width: 2.5"/>
    </g>
    <g id="text_22">
     <!-- DFT reference -->
     <g transform="translate(781.96 43.152188) scale(0.18 -0.18)">
      <defs>
       <path id="Helvetica-44" d="M 2250 531 
Q 2566 531 2769 597 
Q 3131 719 3363 1066 
Q 3547 1344 3628 1778 
Q 3675 2038 3675 2259 
Q 3675 3113 3336 3584 
Q 2997 4056 2244 4056 
L 1141 4056 
L 1141 531 
L 2250 531 
z
M 516 4591 
L 2375 4591 
Q 3322 4591 3844 3919 
Q 4309 3313 4309 2366 
Q 4309 1634 4034 1044 
Q 3550 0 2369 0 
L 516 0 
L 516 4591 
z
" transform="scale(0.015625)"/>
       <path id="Helvetica-46" d="M 547 4591 
L 3731 4591 
L 3731 4028 
L 1169 4028 
L 1169 2634 
L 3422 2634 
L 3422 2088 
L 1169 2088 
L 1169 0 
L 547 0 
L 547 4591 
z
" transform="scale(0.015625)"/>
       <path id="Helvetica-54" d="M 3828 4591 
L 3828 4044 
L 2281 4044 
L 2281 0 
L 1650 0 
L 1650 4044 
L 103 4044 
L 103 4591 
L 3828 4591 
z
" transform="scale(0.015625)"/>
       <path id="Helvetica-66" d="M 553 3856 
Q 566 4206 675 4369 
Q 872 4656 1434 4656 
Q 1488 4656 1544 4653 
Q 1600 4650 1672 4644 
L 1672 4131 
Q 1584 4138 1545 4139 
Q 1506 4141 1472 4141 
Q 1216 4141 1166 4008 
Q 1116 3875 1116 3331 
L 1672 3331 
L 1672 2888 
L 1109 2888 
L 1109 0 
L 553 0 
L 553 2888 
L 88 2888 
L 88 3331 
L 553 3331 
L 553 3856 
z
" transform="scale(0.015625)"/>
       <path id="Helvetica-63" d="M 1703 3444 
Q 2269 3444 2623 3169 
Q 2978 2894 3050 2222 
L 2503 2222 
Q 2453 2531 2275 2736 
Q 2097 2941 1703 2941 
Q 1166 2941 934 2416 
Q 784 2075 784 1575 
Q 784 1072 996 728 
Q 1209 384 1666 384 
Q 2016 384 2220 598 
Q 2425 813 2503 1184 
L 3050 1184 
Q 2956 519 2581 211 
Q 2206 -97 1622 -97 
Q 966 -97 575 383 
Q 184 863 184 1581 
Q 184 2463 612 2953 
Q 1041 3444 1703 3444 
z
M 1616 3428 
L 1616 3428 
z
" transform="scale(0.015625)"/>
      </defs>
      <use xlink:href="#Helvetica-44"/>
      <use xlink:href="#Helvetica-46" x="72.216797"/>
      <use xlink:href="#Helvetica-54" x="133.300781"/>
      <use xlink:href="#Helvetica-20" x="194.384766"/>
      <use xlink:href="#Helvetica-72" x="222.167969"/>
      <use xlink:href="#Helvetica-65" x="255.46875"/>
      <use xlink:href="#Helvetica-66" x="311.083984"/>
      <use xlink:href="#Helvetica-65" x="338.867188"/>
      <use xlink:href="#Helvetica-72" x="394.482422"/>
      <use xlink:href="#Helvetica-65" x="427.783203"/>
      <use xlink:href="#Helvetica-6e" x="483.398438"/>
      <use xlink:href="#Helvetica-63" x="539.013672"/>
      <use xlink:href="#Helvetica-65" x="589.013672"/>
     </g>
    </g>
    <g id="line2d_107">
     <path d="M 754.96 62.51625 
L 763.96 62.51625 
L 772.96 62.51625 
" style="fill: none; stroke: #1f77b4; stroke-width: 2.5; stroke-linecap: square"/>
    </g>
    <g id="text_23">
     <!-- Sutton-Chen -->
     <g transform="translate(781.96 68.81625) scale(0.18 -0.18)">
      <defs>
       <path id="Helvetica-53" d="M 894 1481 
Q 916 1091 1078 847 
Q 1388 391 2169 391 
Q 2519 391 2806 491 
Q 3363 684 3363 1184 
Q 3363 1559 3128 1719 
Q 2891 1875 2384 1991 
L 1763 2131 
Q 1153 2269 900 2434 
Q 463 2722 463 3294 
Q 463 3913 891 4309 
Q 1319 4706 2103 4706 
Q 2825 4706 3329 4357 
Q 3834 4009 3834 3244 
L 3250 3244 
Q 3203 3613 3050 3809 
Q 2766 4169 2084 4169 
Q 1534 4169 1293 3937 
Q 1053 3706 1053 3400 
Q 1053 3063 1334 2906 
Q 1519 2806 2169 2656 
L 2813 2509 
Q 3278 2403 3531 2219 
Q 3969 1897 3969 1284 
Q 3969 522 3414 194 
Q 2859 -134 2125 -134 
Q 1269 -134 784 303 
Q 300 738 309 1481 
L 894 1481 
z
M 2150 4716 
L 2150 4716 
z
" transform="scale(0.015625)"/>
       <path id="Helvetica-75" d="M 975 3347 
L 975 1125 
Q 975 869 1056 706 
Q 1206 406 1616 406 
Q 2203 406 2416 931 
Q 2531 1213 2531 1703 
L 2531 3347 
L 3094 3347 
L 3094 0 
L 2563 0 
L 2569 494 
Q 2459 303 2297 172 
Q 1975 -91 1516 -91 
Q 800 -91 541 388 
Q 400 644 400 1072 
L 400 3347 
L 975 3347 
z
M 1747 3428 
L 1747 3428 
z
" transform="scale(0.015625)"/>
       <path id="Helvetica-2d" d="M 266 2072 
L 1834 2072 
L 1834 1494 
L 266 1494 
L 266 2072 
z
" transform="scale(0.015625)"/>
       <path id="Helvetica-43" d="M 2422 4716 
Q 3294 4716 3775 4256 
Q 4256 3797 4309 3213 
L 3703 3213 
Q 3600 3656 3292 3915 
Q 2984 4175 2428 4175 
Q 1750 4175 1333 3698 
Q 916 3222 916 2238 
Q 916 1431 1292 929 
Q 1669 428 2416 428 
Q 3103 428 3463 956 
Q 3653 1234 3747 1688 
L 4353 1688 
Q 4272 963 3816 472 
Q 3269 -119 2341 -119 
Q 1541 -119 997 366 
Q 281 1006 281 2344 
Q 281 3359 819 4009 
Q 1400 4716 2422 4716 
z
M 2297 4716 
L 2297 4716 
z
" transform="scale(0.015625)"/>
       <path id="Helvetica-68" d="M 413 4606 
L 975 4606 
L 975 2894 
Q 1175 3147 1334 3250 
Q 1606 3428 2013 3428 
Q 2741 3428 3000 2919 
Q 3141 2641 3141 2147 
L 3141 0 
L 2563 0 
L 2563 2109 
Q 2563 2478 2469 2650 
Q 2316 2925 1894 2925 
Q 1544 2925 1259 2684 
Q 975 2444 975 1775 
L 975 0 
L 413 0 
L 413 4606 
z
" transform="scale(0.015625)"/>
      </defs>
      <use xlink:href="#Helvetica-53"/>
      <use xlink:href="#Helvetica-75" x="66.699219"/>
      <use xlink:href="#Helvetica-74" x="122.314453"/>
      <use xlink:href="#Helvetica-74" x="150.097656"/>
      <use xlink:href="#Helvetica-6f" x="177.880859"/>
      <use xlink:href="#Helvetica-6e" x="233.496094"/>
      <use xlink:href="#Helvetica-2d" x="289.111328"/>
      <use xlink:href="#Helvetica-43" x="322.412109"/>
      <use xlink:href="#Helvetica-68" x="394.628906"/>
      <use xlink:href="#Helvetica-65" x="450.244141"/>
      <use xlink:href="#Helvetica-6e" x="505.859375"/>
     </g>
    </g>
    <g id="line2d_108">
     <path d="M 754.96 88.180313 
L 763.96 88.180313 
L 772.96 88.180313 
" style="fill: none; stroke: #ff7f0e; stroke-width: 2.5; stroke-linecap: square"/>
    </g>
    <g id="text_24">
     <!-- TB-SMA -->
     <g transform="translate(781.96 94.480313) scale(0.18 -0.18)">
      <defs>
       <path id="Helvetica-42" d="M 2213 2650 
Q 2606 2650 2825 2759 
Q 3169 2931 3169 3378 
Q 3169 3828 2803 3984 
Q 2597 4072 2191 4072 
L 1081 4072 
L 1081 2650 
L 2213 2650 
z
M 2422 531 
Q 2994 531 3238 863 
Q 3391 1072 3391 1369 
Q 3391 1869 2944 2050 
Q 2706 2147 2316 2147 
L 1081 2147 
L 1081 531 
L 2422 531 
z
M 472 4591 
L 2444 4591 
Q 3250 4591 3591 4109 
Q 3791 3825 3791 3453 
Q 3791 3019 3544 2741 
Q 3416 2594 3175 2472 
Q 3528 2338 3703 2169 
Q 4013 1869 4013 1341 
Q 4013 897 3734 538 
Q 3319 0 2413 0 
L 472 0 
L 472 4591 
z
" transform="scale(0.015625)"/>
       <path id="Helvetica-4d" d="M 472 4591 
L 1363 4591 
L 2681 709 
L 3991 4591 
L 4872 4591 
L 4872 0 
L 4281 0 
L 4281 2709 
Q 4281 2850 4287 3175 
Q 4294 3500 4294 3872 
L 2984 0 
L 2369 0 
L 1050 3872 
L 1050 3731 
Q 1050 3563 1058 3217 
Q 1066 2872 1066 2709 
L 1066 0 
L 472 0 
L 472 4591 
z
" transform="scale(0.015625)"/>
       <path id="Helvetica-41" d="M 2844 1881 
L 2147 3909 
L 1406 1881 
L 2844 1881 
z
M 1822 4591 
L 2525 4591 
L 4191 0 
L 3509 0 
L 3044 1375 
L 1228 1375 
L 731 0 
L 94 0 
L 1822 4591 
z
M 2144 4591 
L 2144 4591 
z
" transform="scale(0.015625)"/>
      </defs>
      <use xlink:href="#Helvetica-54"/>
      <use xlink:href="#Helvetica-42" x="61.083984"/>
      <use xlink:href="#Helvetica-2d" x="127.783203"/>
      <use xlink:href="#Helvetica-53" x="161.083984"/>
      <use xlink:href="#Helvetica-4d" x="227.783203"/>
      <use xlink:href="#Helvetica-41" x="311.083984"/>
     </g>
    </g>
    <g id="line2d_109">
     <path d="M 754.96 113.886563 
L 763.96 113.886563 
L 772.96 113.886563 
" style="fill: none; stroke: #d62728; stroke-width: 2.5; stroke-linecap: square"/>
    </g>
    <g id="text_25">
     <!-- Double Exponential -->
     <g transform="translate(781.96 120.186563) scale(0.18 -0.18)">
      <defs>
       <path id="Helvetica-62" d="M 369 4606 
L 916 4606 
L 916 2941 
Q 1100 3181 1356 3307 
Q 1613 3434 1913 3434 
Q 2538 3434 2927 3004 
Q 3316 2575 3316 1738 
Q 3316 944 2931 419 
Q 2547 -106 1866 -106 
Q 1484 -106 1222 78 
Q 1066 188 888 428 
L 888 0 
L 369 0 
L 369 4606 
z
M 1831 391 
Q 2288 391 2514 753 
Q 2741 1116 2741 1709 
Q 2741 2238 2514 2584 
Q 2288 2931 1847 2931 
Q 1463 2931 1173 2647 
Q 884 2363 884 1709 
Q 884 1238 1003 944 
Q 1225 391 1831 391 
z
" transform="scale(0.015625)"/>
       <path id="Helvetica-6c" d="M 428 4591 
L 991 4591 
L 991 0 
L 428 0 
L 428 4591 
z
" transform="scale(0.015625)"/>
       <path id="Helvetica-78" d="M 94 3347 
L 822 3347 
L 1591 2169 
L 2369 3347 
L 3053 3331 
L 1925 1716 
L 3103 0 
L 2384 0 
L 1553 1256 
L 747 0 
L 34 0 
L 1213 1716 
L 94 3347 
z
" transform="scale(0.015625)"/>
       <path id="Helvetica-70" d="M 1825 378 
Q 2219 378 2480 708 
Q 2741 1038 2741 1694 
Q 2741 2094 2625 2381 
Q 2406 2934 1825 2934 
Q 1241 2934 1025 2350 
Q 909 2038 909 1556 
Q 909 1169 1025 897 
Q 1244 378 1825 378 
z
M 369 3331 
L 916 3331 
L 916 2888 
Q 1084 3116 1284 3241 
Q 1569 3428 1953 3428 
Q 2522 3428 2919 2992 
Q 3316 2556 3316 1747 
Q 3316 653 2744 184 
Q 2381 -113 1900 -113 
Q 1522 -113 1266 53 
Q 1116 147 931 375 
L 931 -1334 
L 369 -1334 
L 369 3331 
z
" transform="scale(0.015625)"/>
      </defs>
      <use xlink:href="#Helvetica-44"/>
      <use xlink:href="#Helvetica-6f" x="72.216797"/>
      <use xlink:href="#Helvetica-75" x="127.832031"/>
      <use xlink:href="#Helvetica-62" x="183.447266"/>
      <use xlink:href="#Helvetica-6c" x="239.0625"/>
      <use xlink:href="#Helvetica-65" x="261.279297"/>
      <use xlink:href="#Helvetica-20" x="316.894531"/>
      <use xlink:href="#Helvetica-45" x="344.677734"/>
      <use xlink:href="#Helvetica-78" x="411.376953"/>
      <use xlink:href="#Helvetica-70" x="461.376953"/>
      <use xlink:href="#Helvetica-6f" x="516.992188"/>
      <use xlink:href="#Helvetica-6e" x="572.607422"/>
      <use xlink:href="#Helvetica-65" x="628.222656"/>
      <use xlink:href="#Helvetica-6e" x="683.837891"/>
      <use xlink:href="#Helvetica-74" x="739.453125"/>
      <use xlink:href="#Helvetica-69" x="767.236328"/>
      <use xlink:href="#Helvetica-61" x="789.453125"/>
      <use xlink:href="#Helvetica-6c" x="845.068359"/>
     </g>
    </g>
   </g>
   <g id="line2d_110">
    <path d="M 528.263726 137.76013 
L 535.185053 189.299022 
L 542.106381 232.029709 
L 549.027708 267.102969 
L 555.949036 295.531067 
L 562.870363 318.199846 
L 569.791691 335.884523 
L 576.713018 349.271343 
L 583.634346 358.962337 
L 590.555673 365.486934 
L 597.477001 369.305828 
L 604.398329 370.826879 
L 611.319656 370.406128 
L 618.240984 368.359415 
L 625.162311 364.966952 
L 632.083639 360.454559 
L 639.004966 355.006859 
L 645.926294 348.911357 
L 652.847621 342.259157 
L 659.768949 335.163869 
L 666.690277 327.718817 
" clip-path="url(#pa6f20b3e23)" style="fill: none; stroke-dasharray: 9.25,4; stroke-dashoffset: 0; stroke: #000000; stroke-width: 2.5"/>
   </g>
  </g>
 </g>
 <defs>
  <clipPath id="pc4ae10ccde">
   <rect x="65.52" y="23.04" width="332.8" height="373.248"/>
  </clipPath>
  <clipPath id="pa6f20b3e23">
   <rect x="406.64" y="23.04" width="332.8" height="373.248"/>
  </clipPath>
 </defs>
</svg>
