<?xml version="1.0" encoding="utf-8" standalone="no"?>
<!DOCTYPE svg PUBLIC "-//W3C//DTD SVG 1.1//EN"
  "http://www.w3.org/Graphics/SVG/1.1/DTD/svg11.dtd">
<svg xmlns:xlink="http://www.w3.org/1999/xlink" width="475.2pt" height="460.8pt" viewBox="0 0 475.2 460.8" xmlns="http://www.w3.org/2000/svg" version="1.1">
 <metadata>
  <rdf:RDF xmlns:dc="http://purl.org/dc/elements/1.1/" xmlns:cc="http://creativecommons.org/ns#" xmlns:rdf="http://www.w3.org/1999/02/22-rdf-syntax-ns#">
   <cc:Work>
    <dc:type rdf:resource="http://purl.org/dc/dcmitype/StillImage"/>
    <dc:date>2024-09-02T07:22:52.446218</dc:date>
    <dc:format>image/svg+xml</dc:format>
    <dc:creator>
     <cc:Agent>
      <dc:title>Matplotlib v3.9.1, https://matplotlib.org/</dc:title>
     </cc:Agent>
    </dc:creator>
   </cc:Work>
  </rdf:RDF>
 </metadata>
 <defs>
  <style type="text/css">*{stroke-linejoin: round; stroke-linecap: butt}</style>
 </defs>
 <g id="figure_1">
  <g id="patch_1">
   <path d="M 0 460.8 
L 475.2 460.8 
L 475.2 0 
L 0 0 
z
" style="fill: #ffffff"/>
  </g>
  <g id="axes_1">
   <g id="patch_2">
    <path d="M 61.776 410.112 
L 460.944 410.112 
L 460.944 13.824 
L 61.776 13.824 
z
" style="fill: #ffffff"/>
   </g>
   <g id="matplotlib.axis_1">
    <g id="xtick_1">
     <g id="line2d_1">
      <defs>
       <path id="mb2bda89879" d="M 0 0 
L 0 -8 
" style="stroke: #000000; stroke-width: 1.5"/>
      </defs>
      <g>
       <use xlink:href="#mb2bda89879" x="126.894185" y="410.112" style="stroke: #000000; stroke-width: 1.5"/>
      </g>
     </g>
     <g id="line2d_2">
      <defs>
       <path id="m3c9e8ff92b" d="M 0 0 
L 0 8 
" style="stroke: #000000; stroke-width: 1.5"/>
      </defs>
      <g>
       <use xlink:href="#m3c9e8ff92b" x="126.894185" y="13.824" style="stroke: #000000; stroke-width: 1.5"/>
      </g>
     </g>
     <g id="text_1">
      <!-- $\mathdefault{10^{1}}$ -->
      <g transform="translate(113.034185 426.524188) scale(0.18 -0.18)">
       <defs>
        <path id="Helvetica-31" d="M 613 3169 
L 613 3600 
Q 1222 3659 1462 3798 
Q 1703 3938 1822 4456 
L 2266 4456 
L 2266 0 
L 1666 0 
L 1666 3169 
L 613 3169 
z
" transform="scale(0.015625)"/>
        <path id="Helvetica-30" d="M 1731 4475 
Q 2600 4475 2988 3759 
Q 3288 3206 3288 2244 
Q 3288 1331 3016 734 
Q 2622 -122 1728 -122 
Q 922 -122 528 578 
Q 200 1163 200 2147 
Q 200 2909 397 3456 
Q 766 4475 1731 4475 
z
M 1725 391 
Q 2163 391 2422 778 
Q 2681 1166 2681 2222 
Q 2681 2984 2493 3476 
Q 2306 3969 1766 3969 
Q 1269 3969 1039 3501 
Q 809 3034 809 2125 
Q 809 1441 956 1025 
Q 1181 391 1725 391 
z
" transform="scale(0.015625)"/>
       </defs>
       <use xlink:href="#Helvetica-31" transform="translate(0 0.654688)"/>
       <use xlink:href="#Helvetica-30" transform="translate(55.615234 0.654688)"/>
       <use xlink:href="#Helvetica-31" transform="translate(112.145664 37.2625) scale(0.7)"/>
      </g>
     </g>
    </g>
    <g id="xtick_2">
     <g id="line2d_3">
      <g>
       <use xlink:href="#mb2bda89879" x="290.53238" y="410.112" style="stroke: #000000; stroke-width: 1.5"/>
      </g>
     </g>
     <g id="line2d_4">
      <g>
       <use xlink:href="#m3c9e8ff92b" x="290.53238" y="13.824" style="stroke: #000000; stroke-width: 1.5"/>
      </g>
     </g>
     <g id="text_2">
      <!-- $\mathdefault{10^{2}}$ -->
      <g transform="translate(276.67238 426.524188) scale(0.18 -0.18)">
       <defs>
        <path id="Helvetica-32" d="M 200 0 
Q 231 578 439 1006 
Q 647 1434 1250 1784 
L 1850 2131 
Q 2253 2366 2416 2531 
Q 2672 2791 2672 3125 
Q 2672 3516 2437 3745 
Q 2203 3975 1813 3975 
Q 1234 3975 1013 3538 
Q 894 3303 881 2888 
L 309 2888 
Q 319 3472 525 3841 
Q 891 4491 1816 4491 
Q 2584 4491 2939 4075 
Q 3294 3659 3294 3150 
Q 3294 2613 2916 2231 
Q 2697 2009 2131 1694 
L 1703 1456 
Q 1397 1288 1222 1134 
Q 909 863 828 531 
L 3272 531 
L 3272 0 
L 200 0 
z
" transform="scale(0.015625)"/>
       </defs>
       <use xlink:href="#Helvetica-31" transform="translate(0 0.271875)"/>
       <use xlink:href="#Helvetica-30" transform="translate(55.615234 0.271875)"/>
       <use xlink:href="#Helvetica-32" transform="translate(112.145664 36.879688) scale(0.7)"/>
      </g>
     </g>
    </g>
    <g id="xtick_3">
     <g id="line2d_5">
      <g>
       <use xlink:href="#mb2bda89879" x="454.170576" y="410.112" style="stroke: #000000; stroke-width: 1.5"/>
      </g>
     </g>
     <g id="line2d_6">
      <g>
       <use xlink:href="#m3c9e8ff92b" x="454.170576" y="13.824" style="stroke: #000000; stroke-width: 1.5"/>
      </g>
     </g>
     <g id="text_3">
      <!-- $\mathdefault{10^{3}}$ -->
      <g transform="translate(440.310576 426.524188) scale(0.18 -0.18)">
       <defs>
        <path id="Helvetica-33" d="M 1663 -122 
Q 869 -122 511 314 
Q 153 750 153 1375 
L 741 1375 
Q 778 941 903 744 
Q 1122 391 1694 391 
Q 2138 391 2406 628 
Q 2675 866 2675 1241 
Q 2675 1703 2392 1887 
Q 2109 2072 1606 2072 
Q 1550 2072 1492 2070 
Q 1434 2069 1375 2066 
L 1375 2563 
Q 1463 2553 1522 2550 
Q 1581 2547 1650 2547 
Q 1966 2547 2169 2647 
Q 2525 2822 2525 3272 
Q 2525 3606 2287 3787 
Q 2050 3969 1734 3969 
Q 1172 3969 956 3594 
Q 838 3388 822 3006 
L 266 3006 
Q 266 3506 466 3856 
Q 809 4481 1675 4481 
Q 2359 4481 2734 4176 
Q 3109 3872 3109 3294 
Q 3109 2881 2888 2625 
Q 2750 2466 2531 2375 
Q 2884 2278 3082 2001 
Q 3281 1725 3281 1325 
Q 3281 684 2859 281 
Q 2438 -122 1663 -122 
z
" transform="scale(0.015625)"/>
       </defs>
       <use xlink:href="#Helvetica-31" transform="translate(0 0.38125)"/>
       <use xlink:href="#Helvetica-30" transform="translate(55.615234 0.38125)"/>
       <use xlink:href="#Helvetica-33" transform="translate(112.145664 36.989063) scale(0.7)"/>
      </g>
     </g>
    </g>
    <g id="xtick_4">
     <g id="line2d_7">
      <defs>
       <path id="mc391cc2776" d="M 0 0 
L 0 -4 
" style="stroke: #000000; stroke-width: 1.5"/>
      </defs>
      <g>
       <use xlink:href="#mc391cc2776" x="61.776" y="410.112" style="stroke: #000000; stroke-width: 1.5"/>
      </g>
     </g>
     <g id="line2d_8">
      <defs>
       <path id="m4b6f0922c0" d="M 0 0 
L 0 4 
" style="stroke: #000000; stroke-width: 1.5"/>
      </defs>
      <g>
       <use xlink:href="#m4b6f0922c0" x="61.776" y="13.824" style="stroke: #000000; stroke-width: 1.5"/>
      </g>
     </g>
    </g>
    <g id="xtick_5">
     <g id="line2d_9">
      <g>
       <use xlink:href="#mc391cc2776" x="77.63418" y="410.112" style="stroke: #000000; stroke-width: 1.5"/>
      </g>
     </g>
     <g id="line2d_10">
      <g>
       <use xlink:href="#m4b6f0922c0" x="77.63418" y="13.824" style="stroke: #000000; stroke-width: 1.5"/>
      </g>
     </g>
    </g>
    <g id="xtick_6">
     <g id="line2d_11">
      <g>
       <use xlink:href="#mc391cc2776" x="90.591256" y="410.112" style="stroke: #000000; stroke-width: 1.5"/>
      </g>
     </g>
     <g id="line2d_12">
      <g>
       <use xlink:href="#m4b6f0922c0" x="90.591256" y="13.824" style="stroke: #000000; stroke-width: 1.5"/>
      </g>
     </g>
    </g>
    <g id="xtick_7">
     <g id="line2d_13">
      <g>
       <use xlink:href="#mc391cc2776" x="101.546308" y="410.112" style="stroke: #000000; stroke-width: 1.5"/>
      </g>
     </g>
     <g id="line2d_14">
      <g>
       <use xlink:href="#m4b6f0922c0" x="101.546308" y="13.824" style="stroke: #000000; stroke-width: 1.5"/>
      </g>
     </g>
    </g>
    <g id="xtick_8">
     <g id="line2d_15">
      <g>
       <use xlink:href="#mc391cc2776" x="111.036005" y="410.112" style="stroke: #000000; stroke-width: 1.5"/>
      </g>
     </g>
     <g id="line2d_16">
      <g>
       <use xlink:href="#m4b6f0922c0" x="111.036005" y="13.824" style="stroke: #000000; stroke-width: 1.5"/>
      </g>
     </g>
    </g>
    <g id="xtick_9">
     <g id="line2d_17">
      <g>
       <use xlink:href="#mc391cc2776" x="119.406512" y="410.112" style="stroke: #000000; stroke-width: 1.5"/>
      </g>
     </g>
     <g id="line2d_18">
      <g>
       <use xlink:href="#m4b6f0922c0" x="119.406512" y="13.824" style="stroke: #000000; stroke-width: 1.5"/>
      </g>
     </g>
    </g>
    <g id="xtick_10">
     <g id="line2d_19">
      <g>
       <use xlink:href="#mc391cc2776" x="176.15419" y="410.112" style="stroke: #000000; stroke-width: 1.5"/>
      </g>
     </g>
     <g id="line2d_20">
      <g>
       <use xlink:href="#m4b6f0922c0" x="176.15419" y="13.824" style="stroke: #000000; stroke-width: 1.5"/>
      </g>
     </g>
    </g>
    <g id="xtick_11">
     <g id="line2d_21">
      <g>
       <use xlink:href="#mc391cc2776" x="204.969446" y="410.112" style="stroke: #000000; stroke-width: 1.5"/>
      </g>
     </g>
     <g id="line2d_22">
      <g>
       <use xlink:href="#m4b6f0922c0" x="204.969446" y="13.824" style="stroke: #000000; stroke-width: 1.5"/>
      </g>
     </g>
    </g>
    <g id="xtick_12">
     <g id="line2d_23">
      <g>
       <use xlink:href="#mc391cc2776" x="225.414195" y="410.112" style="stroke: #000000; stroke-width: 1.5"/>
      </g>
     </g>
     <g id="line2d_24">
      <g>
       <use xlink:href="#m4b6f0922c0" x="225.414195" y="13.824" style="stroke: #000000; stroke-width: 1.5"/>
      </g>
     </g>
    </g>
    <g id="xtick_13">
     <g id="line2d_25">
      <g>
       <use xlink:href="#mc391cc2776" x="241.272375" y="410.112" style="stroke: #000000; stroke-width: 1.5"/>
      </g>
     </g>
     <g id="line2d_26">
      <g>
       <use xlink:href="#m4b6f0922c0" x="241.272375" y="13.824" style="stroke: #000000; stroke-width: 1.5"/>
      </g>
     </g>
    </g>
    <g id="xtick_14">
     <g id="line2d_27">
      <g>
       <use xlink:href="#mc391cc2776" x="254.229451" y="410.112" style="stroke: #000000; stroke-width: 1.5"/>
      </g>
     </g>
     <g id="line2d_28">
      <g>
       <use xlink:href="#m4b6f0922c0" x="254.229451" y="13.824" style="stroke: #000000; stroke-width: 1.5"/>
      </g>
     </g>
    </g>
    <g id="xtick_15">
     <g id="line2d_29">
      <g>
       <use xlink:href="#mc391cc2776" x="265.184503" y="410.112" style="stroke: #000000; stroke-width: 1.5"/>
      </g>
     </g>
     <g id="line2d_30">
      <g>
       <use xlink:href="#m4b6f0922c0" x="265.184503" y="13.824" style="stroke: #000000; stroke-width: 1.5"/>
      </g>
     </g>
    </g>
    <g id="xtick_16">
     <g id="line2d_31">
      <g>
       <use xlink:href="#mc391cc2776" x="274.674201" y="410.112" style="stroke: #000000; stroke-width: 1.5"/>
      </g>
     </g>
     <g id="line2d_32">
      <g>
       <use xlink:href="#m4b6f0922c0" x="274.674201" y="13.824" style="stroke: #000000; stroke-width: 1.5"/>
      </g>
     </g>
    </g>
    <g id="xtick_17">
     <g id="line2d_33">
      <g>
       <use xlink:href="#mc391cc2776" x="283.044707" y="410.112" style="stroke: #000000; stroke-width: 1.5"/>
      </g>
     </g>
     <g id="line2d_34">
      <g>
       <use xlink:href="#m4b6f0922c0" x="283.044707" y="13.824" style="stroke: #000000; stroke-width: 1.5"/>
      </g>
     </g>
    </g>
    <g id="xtick_18">
     <g id="line2d_35">
      <g>
       <use xlink:href="#mc391cc2776" x="339.792386" y="410.112" style="stroke: #000000; stroke-width: 1.5"/>
      </g>
     </g>
     <g id="line2d_36">
      <g>
       <use xlink:href="#m4b6f0922c0" x="339.792386" y="13.824" style="stroke: #000000; stroke-width: 1.5"/>
      </g>
     </g>
    </g>
    <g id="xtick_19">
     <g id="line2d_37">
      <g>
       <use xlink:href="#mc391cc2776" x="368.607641" y="410.112" style="stroke: #000000; stroke-width: 1.5"/>
      </g>
     </g>
     <g id="line2d_38">
      <g>
       <use xlink:href="#m4b6f0922c0" x="368.607641" y="13.824" style="stroke: #000000; stroke-width: 1.5"/>
      </g>
     </g>
    </g>
    <g id="xtick_20">
     <g id="line2d_39">
      <g>
       <use xlink:href="#mc391cc2776" x="389.052391" y="410.112" style="stroke: #000000; stroke-width: 1.5"/>
      </g>
     </g>
     <g id="line2d_40">
      <g>
       <use xlink:href="#m4b6f0922c0" x="389.052391" y="13.824" style="stroke: #000000; stroke-width: 1.5"/>
      </g>
     </g>
    </g>
    <g id="xtick_21">
     <g id="line2d_41">
      <g>
       <use xlink:href="#mc391cc2776" x="404.91057" y="410.112" style="stroke: #000000; stroke-width: 1.5"/>
      </g>
     </g>
     <g id="line2d_42">
      <g>
       <use xlink:href="#m4b6f0922c0" x="404.91057" y="13.824" style="stroke: #000000; stroke-width: 1.5"/>
      </g>
     </g>
    </g>
    <g id="xtick_22">
     <g id="line2d_43">
      <g>
       <use xlink:href="#mc391cc2776" x="417.867647" y="410.112" style="stroke: #000000; stroke-width: 1.5"/>
      </g>
     </g>
     <g id="line2d_44">
      <g>
       <use xlink:href="#m4b6f0922c0" x="417.867647" y="13.824" style="stroke: #000000; stroke-width: 1.5"/>
      </g>
     </g>
    </g>
    <g id="xtick_23">
     <g id="line2d_45">
      <g>
       <use xlink:href="#mc391cc2776" x="428.822699" y="410.112" style="stroke: #000000; stroke-width: 1.5"/>
      </g>
     </g>
     <g id="line2d_46">
      <g>
       <use xlink:href="#m4b6f0922c0" x="428.822699" y="13.824" style="stroke: #000000; stroke-width: 1.5"/>
      </g>
     </g>
    </g>
    <g id="xtick_24">
     <g id="line2d_47">
      <g>
       <use xlink:href="#mc391cc2776" x="438.312396" y="410.112" style="stroke: #000000; stroke-width: 1.5"/>
      </g>
     </g>
     <g id="line2d_48">
      <g>
       <use xlink:href="#m4b6f0922c0" x="438.312396" y="13.824" style="stroke: #000000; stroke-width: 1.5"/>
      </g>
     </g>
    </g>
    <g id="xtick_25">
     <g id="line2d_49">
      <g>
       <use xlink:href="#mc391cc2776" x="446.682903" y="410.112" style="stroke: #000000; stroke-width: 1.5"/>
      </g>
     </g>
     <g id="line2d_50">
      <g>
       <use xlink:href="#m4b6f0922c0" x="446.682903" y="13.824" style="stroke: #000000; stroke-width: 1.5"/>
      </g>
     </g>
    </g>
    <g id="text_4">
     <!-- Number of parameters -->
     <g transform="translate(161.32875 448.826063) scale(0.2 -0.2)">
      <defs>
       <path id="Helvetica-4e" d="M 488 4591 
L 1222 4591 
L 3541 872 
L 3541 4591 
L 4131 4591 
L 4131 0 
L 3434 0 
L 1081 3716 
L 1081 0 
L 488 0 
L 488 4591 
z
M 2269 4591 
L 2269 4591 
z
" transform="scale(0.015625)"/>
       <path id="Helvetica-75" d="M 975 3347 
L 975 1125 
Q 975 869 1056 706 
Q 1206 406 1616 406 
Q 2203 406 2416 931 
Q 2531 1213 2531 1703 
L 2531 3347 
L 3094 3347 
L 3094 0 
L 2563 0 
L 2569 494 
Q 2459 303 2297 172 
Q 1975 -91 1516 -91 
Q 800 -91 541 388 
Q 400 644 400 1072 
L 400 3347 
L 975 3347 
z
M 1747 3428 
L 1747 3428 
z
" transform="scale(0.015625)"/>
       <path id="Helvetica-6d" d="M 413 3347 
L 969 3347 
L 969 2872 
Q 1169 3119 1331 3231 
Q 1609 3422 1963 3422 
Q 2363 3422 2606 3225 
Q 2744 3113 2856 2894 
Q 3044 3163 3297 3292 
Q 3550 3422 3866 3422 
Q 4541 3422 4784 2934 
Q 4916 2672 4916 2228 
L 4916 0 
L 4331 0 
L 4331 2325 
Q 4331 2659 4164 2784 
Q 3997 2909 3756 2909 
Q 3425 2909 3186 2687 
Q 2947 2466 2947 1947 
L 2947 0 
L 2375 0 
L 2375 2184 
Q 2375 2525 2294 2681 
Q 2166 2916 1816 2916 
Q 1497 2916 1236 2669 
Q 975 2422 975 1775 
L 975 0 
L 413 0 
L 413 3347 
z
" transform="scale(0.015625)"/>
       <path id="Helvetica-62" d="M 369 4606 
L 916 4606 
L 916 2941 
Q 1100 3181 1356 3307 
Q 1613 3434 1913 3434 
Q 2538 3434 2927 3004 
Q 3316 2575 3316 1738 
Q 3316 944 2931 419 
Q 2547 -106 1866 -106 
Q 1484 -106 1222 78 
Q 1066 188 888 428 
L 888 0 
L 369 0 
L 369 4606 
z
M 1831 391 
Q 2288 391 2514 753 
Q 2741 1116 2741 1709 
Q 2741 2238 2514 2584 
Q 2288 2931 1847 2931 
Q 1463 2931 1173 2647 
Q 884 2363 884 1709 
Q 884 1238 1003 944 
Q 1225 391 1831 391 
z
" transform="scale(0.015625)"/>
       <path id="Helvetica-65" d="M 1806 3422 
Q 2163 3422 2497 3255 
Q 2831 3088 3006 2822 
Q 3175 2569 3231 2231 
Q 3281 2000 3281 1494 
L 828 1494 
Q 844 984 1069 676 
Q 1294 369 1766 369 
Q 2206 369 2469 659 
Q 2619 828 2681 1050 
L 3234 1050 
Q 3213 866 3089 639 
Q 2966 413 2813 269 
Q 2556 19 2178 -69 
Q 1975 -119 1719 -119 
Q 1094 -119 659 336 
Q 225 791 225 1609 
Q 225 2416 662 2919 
Q 1100 3422 1806 3422 
z
M 2703 1941 
Q 2669 2306 2544 2525 
Q 2313 2931 1772 2931 
Q 1384 2931 1121 2651 
Q 859 2372 844 1941 
L 2703 1941 
z
M 1753 3428 
L 1753 3428 
z
" transform="scale(0.015625)"/>
       <path id="Helvetica-72" d="M 428 3347 
L 963 3347 
L 963 2769 
Q 1028 2938 1284 3180 
Q 1541 3422 1875 3422 
Q 1891 3422 1928 3419 
Q 1966 3416 2056 3406 
L 2056 2813 
Q 2006 2822 1964 2825 
Q 1922 2828 1872 2828 
Q 1447 2828 1219 2554 
Q 991 2281 991 1925 
L 991 0 
L 428 0 
L 428 3347 
z
" transform="scale(0.015625)"/>
       <path id="Helvetica-20" transform="scale(0.015625)"/>
       <path id="Helvetica-6f" d="M 1741 363 
Q 2300 363 2508 786 
Q 2716 1209 2716 1728 
Q 2716 2197 2566 2491 
Q 2328 2953 1747 2953 
Q 1231 2953 997 2559 
Q 763 2166 763 1609 
Q 763 1075 997 719 
Q 1231 363 1741 363 
z
M 1763 3444 
Q 2409 3444 2856 3012 
Q 3303 2581 3303 1744 
Q 3303 934 2909 406 
Q 2516 -122 1688 -122 
Q 997 -122 590 345 
Q 184 813 184 1600 
Q 184 2444 612 2944 
Q 1041 3444 1763 3444 
z
M 1744 3428 
L 1744 3428 
z
" transform="scale(0.015625)"/>
       <path id="Helvetica-66" d="M 553 3856 
Q 566 4206 675 4369 
Q 872 4656 1434 4656 
Q 1488 4656 1544 4653 
Q 1600 4650 1672 4644 
L 1672 4131 
Q 1584 4138 1545 4139 
Q 1506 4141 1472 4141 
Q 1216 4141 1166 4008 
Q 1116 3875 1116 3331 
L 1672 3331 
L 1672 2888 
L 1109 2888 
L 1109 0 
L 553 0 
L 553 2888 
L 88 2888 
L 88 3331 
L 553 3331 
L 553 3856 
z
" transform="scale(0.015625)"/>
       <path id="Helvetica-70" d="M 1825 378 
Q 2219 378 2480 708 
Q 2741 1038 2741 1694 
Q 2741 2094 2625 2381 
Q 2406 2934 1825 2934 
Q 1241 2934 1025 2350 
Q 909 2038 909 1556 
Q 909 1169 1025 897 
Q 1244 378 1825 378 
z
M 369 3331 
L 916 3331 
L 916 2888 
Q 1084 3116 1284 3241 
Q 1569 3428 1953 3428 
Q 2522 3428 2919 2992 
Q 3316 2556 3316 1747 
Q 3316 653 2744 184 
Q 2381 -113 1900 -113 
Q 1522 -113 1266 53 
Q 1116 147 931 375 
L 931 -1334 
L 369 -1334 
L 369 3331 
z
" transform="scale(0.015625)"/>
       <path id="Helvetica-61" d="M 844 891 
Q 844 647 1022 506 
Q 1200 366 1444 366 
Q 1741 366 2019 503 
Q 2488 731 2488 1250 
L 2488 1703 
Q 2384 1638 2221 1594 
Q 2059 1550 1903 1531 
L 1563 1488 
Q 1256 1447 1103 1359 
Q 844 1213 844 891 
z
M 2206 2028 
Q 2400 2053 2466 2191 
Q 2503 2266 2503 2406 
Q 2503 2694 2298 2823 
Q 2094 2953 1713 2953 
Q 1272 2953 1088 2716 
Q 984 2584 953 2325 
L 428 2325 
Q 444 2944 830 3186 
Q 1216 3428 1725 3428 
Q 2316 3428 2684 3203 
Q 3050 2978 3050 2503 
L 3050 575 
Q 3050 488 3086 434 
Q 3122 381 3238 381 
Q 3275 381 3322 386 
Q 3369 391 3422 400 
L 3422 -16 
Q 3291 -53 3222 -62 
Q 3153 -72 3034 -72 
Q 2744 -72 2613 134 
Q 2544 244 2516 444 
Q 2344 219 2022 53 
Q 1700 -113 1313 -113 
Q 847 -113 551 170 
Q 256 453 256 878 
Q 256 1344 547 1600 
Q 838 1856 1309 1916 
L 2206 2028 
z
M 1741 3428 
L 1741 3428 
z
" transform="scale(0.015625)"/>
       <path id="Helvetica-74" d="M 525 4281 
L 1094 4281 
L 1094 3347 
L 1628 3347 
L 1628 2888 
L 1094 2888 
L 1094 703 
Q 1094 528 1213 469 
Q 1278 434 1431 434 
Q 1472 434 1519 436 
Q 1566 438 1628 444 
L 1628 0 
Q 1531 -28 1426 -40 
Q 1322 -53 1200 -53 
Q 806 -53 665 148 
Q 525 350 525 672 
L 525 2888 
L 72 2888 
L 72 3347 
L 525 3347 
L 525 4281 
z
" transform="scale(0.015625)"/>
       <path id="Helvetica-73" d="M 747 1050 
Q 772 769 888 619 
Q 1100 347 1625 347 
Q 1938 347 2175 483 
Q 2413 619 2413 903 
Q 2413 1119 2222 1231 
Q 2100 1300 1741 1391 
L 1294 1503 
Q 866 1609 663 1741 
Q 300 1969 300 2372 
Q 300 2847 642 3140 
Q 984 3434 1563 3434 
Q 2319 3434 2653 2991 
Q 2863 2709 2856 2384 
L 2325 2384 
Q 2309 2575 2191 2731 
Q 1997 2953 1519 2953 
Q 1200 2953 1036 2831 
Q 872 2709 872 2509 
Q 872 2291 1088 2159 
Q 1213 2081 1456 2022 
L 1828 1931 
Q 2434 1784 2641 1647 
Q 2969 1431 2969 969 
Q 2969 522 2630 197 
Q 2291 -128 1597 -128 
Q 850 -128 539 211 
Q 228 550 206 1050 
L 747 1050 
z
M 1578 3428 
L 1578 3428 
z
" transform="scale(0.015625)"/>
      </defs>
      <use xlink:href="#Helvetica-4e"/>
      <use xlink:href="#Helvetica-75" x="72.216797"/>
      <use xlink:href="#Helvetica-6d" x="127.832031"/>
      <use xlink:href="#Helvetica-62" x="211.132812"/>
      <use xlink:href="#Helvetica-65" x="266.748047"/>
      <use xlink:href="#Helvetica-72" x="322.363281"/>
      <use xlink:href="#Helvetica-20" x="355.664062"/>
      <use xlink:href="#Helvetica-6f" x="383.447266"/>
      <use xlink:href="#Helvetica-66" x="439.0625"/>
      <use xlink:href="#Helvetica-20" x="466.845703"/>
      <use xlink:href="#Helvetica-70" x="494.628906"/>
      <use xlink:href="#Helvetica-61" x="550.244141"/>
      <use xlink:href="#Helvetica-72" x="605.859375"/>
      <use xlink:href="#Helvetica-61" x="639.160156"/>
      <use xlink:href="#Helvetica-6d" x="694.775391"/>
      <use xlink:href="#Helvetica-65" x="778.076172"/>
      <use xlink:href="#Helvetica-74" x="833.691406"/>
      <use xlink:href="#Helvetica-65" x="861.474609"/>
      <use xlink:href="#Helvetica-72" x="917.089844"/>
      <use xlink:href="#Helvetica-73" x="950.390625"/>
     </g>
    </g>
   </g>
   <g id="matplotlib.axis_2">
    <g id="ytick_1">
     <g id="line2d_51">
      <defs>
       <path id="m781a8892a8" d="M 0 0 
L 8 0 
" style="stroke: #000000; stroke-width: 1.5"/>
      </defs>
      <g>
       <use xlink:href="#m781a8892a8" x="61.776" y="410.112" style="stroke: #000000; stroke-width: 1.5"/>
      </g>
     </g>
     <g id="line2d_52">
      <defs>
       <path id="meb2090417d" d="M 0 0 
L -8 0 
" style="stroke: #000000; stroke-width: 1.5"/>
      </defs>
      <g>
       <use xlink:href="#meb2090417d" x="460.944" y="410.112" style="stroke: #000000; stroke-width: 1.5"/>
      </g>
     </g>
     <g id="text_5">
      <!-- $\mathdefault{10^{-1}}$ -->
      <g transform="translate(23.176 416.568094) scale(0.18 -0.18)">
       <defs>
        <path id="Helvetica-2212" d="M 3547 1894 
L 3547 1369 
L 288 1369 
L 288 1894 
L 3547 1894 
z
" transform="scale(0.015625)"/>
       </defs>
       <use xlink:href="#Helvetica-31" transform="translate(0 0.654688)"/>
       <use xlink:href="#Helvetica-30" transform="translate(55.615234 0.654688)"/>
       <use xlink:href="#Helvetica-2212" transform="translate(112.145664 37.2625) scale(0.7)"/>
       <use xlink:href="#Helvetica-31" transform="translate(153.02457 37.2625) scale(0.7)"/>
      </g>
     </g>
    </g>
    <g id="ytick_2">
     <g id="line2d_53">
      <g>
       <use xlink:href="#m781a8892a8" x="61.776" y="215.985704" style="stroke: #000000; stroke-width: 1.5"/>
      </g>
     </g>
     <g id="line2d_54">
      <g>
       <use xlink:href="#meb2090417d" x="460.944" y="215.985704" style="stroke: #000000; stroke-width: 1.5"/>
      </g>
     </g>
     <g id="text_6">
      <!-- $\mathdefault{10^{0}}$ -->
      <g transform="translate(30.556 222.441798) scale(0.18 -0.18)">
       <use xlink:href="#Helvetica-31" transform="translate(0 0.446875)"/>
       <use xlink:href="#Helvetica-30" transform="translate(55.615234 0.446875)"/>
       <use xlink:href="#Helvetica-30" transform="translate(112.145664 37.054688) scale(0.7)"/>
      </g>
     </g>
    </g>
    <g id="ytick_3">
     <g id="line2d_55">
      <g>
       <use xlink:href="#m781a8892a8" x="61.776" y="21.859409" style="stroke: #000000; stroke-width: 1.5"/>
      </g>
     </g>
     <g id="line2d_56">
      <g>
       <use xlink:href="#meb2090417d" x="460.944" y="21.859409" style="stroke: #000000; stroke-width: 1.5"/>
      </g>
     </g>
     <g id="text_7">
      <!-- $\mathdefault{10^{1}}$ -->
      <g transform="translate(30.556 28.315502) scale(0.18 -0.18)">
       <use xlink:href="#Helvetica-31" transform="translate(0 0.654688)"/>
       <use xlink:href="#Helvetica-30" transform="translate(55.615234 0.654688)"/>
       <use xlink:href="#Helvetica-31" transform="translate(112.145664 37.2625) scale(0.7)"/>
      </g>
     </g>
    </g>
    <g id="ytick_4">
     <g id="line2d_57">
      <defs>
       <path id="m5d912e09c6" d="M 0 0 
L 4 0 
" style="stroke: #000000; stroke-width: 1.5"/>
      </defs>
      <g>
       <use xlink:href="#m5d912e09c6" x="61.776" y="351.674162" style="stroke: #000000; stroke-width: 1.5"/>
      </g>
     </g>
     <g id="line2d_58">
      <defs>
       <path id="m691e83ba1f" d="M 0 0 
L -4 0 
" style="stroke: #000000; stroke-width: 1.5"/>
      </defs>
      <g>
       <use xlink:href="#m691e83ba1f" x="460.944" y="351.674162" style="stroke: #000000; stroke-width: 1.5"/>
      </g>
     </g>
    </g>
    <g id="ytick_5">
     <g id="line2d_59">
      <g>
       <use xlink:href="#m5d912e09c6" x="61.776" y="317.490218" style="stroke: #000000; stroke-width: 1.5"/>
      </g>
     </g>
     <g id="line2d_60">
      <g>
       <use xlink:href="#m691e83ba1f" x="460.944" y="317.490218" style="stroke: #000000; stroke-width: 1.5"/>
      </g>
     </g>
    </g>
    <g id="ytick_6">
     <g id="line2d_61">
      <g>
       <use xlink:href="#m5d912e09c6" x="61.776" y="293.236324" style="stroke: #000000; stroke-width: 1.5"/>
      </g>
     </g>
     <g id="line2d_62">
      <g>
       <use xlink:href="#m691e83ba1f" x="460.944" y="293.236324" style="stroke: #000000; stroke-width: 1.5"/>
      </g>
     </g>
    </g>
    <g id="ytick_7">
     <g id="line2d_63">
      <g>
       <use xlink:href="#m5d912e09c6" x="61.776" y="274.423542" style="stroke: #000000; stroke-width: 1.5"/>
      </g>
     </g>
     <g id="line2d_64">
      <g>
       <use xlink:href="#m691e83ba1f" x="460.944" y="274.423542" style="stroke: #000000; stroke-width: 1.5"/>
      </g>
     </g>
    </g>
    <g id="ytick_8">
     <g id="line2d_65">
      <g>
       <use xlink:href="#m5d912e09c6" x="61.776" y="259.05238" style="stroke: #000000; stroke-width: 1.5"/>
      </g>
     </g>
     <g id="line2d_66">
      <g>
       <use xlink:href="#m691e83ba1f" x="460.944" y="259.05238" style="stroke: #000000; stroke-width: 1.5"/>
      </g>
     </g>
    </g>
    <g id="ytick_9">
     <g id="line2d_67">
      <g>
       <use xlink:href="#m5d912e09c6" x="61.776" y="246.056248" style="stroke: #000000; stroke-width: 1.5"/>
      </g>
     </g>
     <g id="line2d_68">
      <g>
       <use xlink:href="#m691e83ba1f" x="460.944" y="246.056248" style="stroke: #000000; stroke-width: 1.5"/>
      </g>
     </g>
    </g>
    <g id="ytick_10">
     <g id="line2d_69">
      <g>
       <use xlink:href="#m5d912e09c6" x="61.776" y="234.798486" style="stroke: #000000; stroke-width: 1.5"/>
      </g>
     </g>
     <g id="line2d_70">
      <g>
       <use xlink:href="#m691e83ba1f" x="460.944" y="234.798486" style="stroke: #000000; stroke-width: 1.5"/>
      </g>
     </g>
    </g>
    <g id="ytick_11">
     <g id="line2d_71">
      <g>
       <use xlink:href="#m5d912e09c6" x="61.776" y="224.868436" style="stroke: #000000; stroke-width: 1.5"/>
      </g>
     </g>
     <g id="line2d_72">
      <g>
       <use xlink:href="#m691e83ba1f" x="460.944" y="224.868436" style="stroke: #000000; stroke-width: 1.5"/>
      </g>
     </g>
    </g>
    <g id="ytick_12">
     <g id="line2d_73">
      <g>
       <use xlink:href="#m5d912e09c6" x="61.776" y="157.547866" style="stroke: #000000; stroke-width: 1.5"/>
      </g>
     </g>
     <g id="line2d_74">
      <g>
       <use xlink:href="#m691e83ba1f" x="460.944" y="157.547866" style="stroke: #000000; stroke-width: 1.5"/>
      </g>
     </g>
    </g>
    <g id="ytick_13">
     <g id="line2d_75">
      <g>
       <use xlink:href="#m5d912e09c6" x="61.776" y="123.363923" style="stroke: #000000; stroke-width: 1.5"/>
      </g>
     </g>
     <g id="line2d_76">
      <g>
       <use xlink:href="#m691e83ba1f" x="460.944" y="123.363923" style="stroke: #000000; stroke-width: 1.5"/>
      </g>
     </g>
    </g>
    <g id="ytick_14">
     <g id="line2d_77">
      <g>
       <use xlink:href="#m5d912e09c6" x="61.776" y="99.110028" style="stroke: #000000; stroke-width: 1.5"/>
      </g>
     </g>
     <g id="line2d_78">
      <g>
       <use xlink:href="#m691e83ba1f" x="460.944" y="99.110028" style="stroke: #000000; stroke-width: 1.5"/>
      </g>
     </g>
    </g>
    <g id="ytick_15">
     <g id="line2d_79">
      <g>
       <use xlink:href="#m5d912e09c6" x="61.776" y="80.297247" style="stroke: #000000; stroke-width: 1.5"/>
      </g>
     </g>
     <g id="line2d_80">
      <g>
       <use xlink:href="#m691e83ba1f" x="460.944" y="80.297247" style="stroke: #000000; stroke-width: 1.5"/>
      </g>
     </g>
    </g>
    <g id="ytick_16">
     <g id="line2d_81">
      <g>
       <use xlink:href="#m5d912e09c6" x="61.776" y="64.926085" style="stroke: #000000; stroke-width: 1.5"/>
      </g>
     </g>
     <g id="line2d_82">
      <g>
       <use xlink:href="#m691e83ba1f" x="460.944" y="64.926085" style="stroke: #000000; stroke-width: 1.5"/>
      </g>
     </g>
    </g>
    <g id="ytick_17">
     <g id="line2d_83">
      <g>
       <use xlink:href="#m5d912e09c6" x="61.776" y="51.929952" style="stroke: #000000; stroke-width: 1.5"/>
      </g>
     </g>
     <g id="line2d_84">
      <g>
       <use xlink:href="#m691e83ba1f" x="460.944" y="51.929952" style="stroke: #000000; stroke-width: 1.5"/>
      </g>
     </g>
    </g>
    <g id="ytick_18">
     <g id="line2d_85">
      <g>
       <use xlink:href="#m5d912e09c6" x="61.776" y="40.67219" style="stroke: #000000; stroke-width: 1.5"/>
      </g>
     </g>
     <g id="line2d_86">
      <g>
       <use xlink:href="#m691e83ba1f" x="460.944" y="40.67219" style="stroke: #000000; stroke-width: 1.5"/>
      </g>
     </g>
    </g>
    <g id="ytick_19">
     <g id="line2d_87">
      <g>
       <use xlink:href="#m5d912e09c6" x="61.776" y="30.742141" style="stroke: #000000; stroke-width: 1.5"/>
      </g>
     </g>
     <g id="line2d_88">
      <g>
       <use xlink:href="#m691e83ba1f" x="460.944" y="30.742141" style="stroke: #000000; stroke-width: 1.5"/>
      </g>
     </g>
    </g>
    <g id="text_8">
     <!-- Loss function (meV/atom) -->
     <g transform="translate(15.00725 325.896125) rotate(-90) scale(0.2 -0.2)">
      <defs>
       <path id="Helvetica-4c" d="M 488 4591 
L 1109 4591 
L 1109 547 
L 3434 547 
L 3434 0 
L 488 0 
L 488 4591 
z
" transform="scale(0.015625)"/>
       <path id="Helvetica-6e" d="M 413 3347 
L 947 3347 
L 947 2872 
Q 1184 3166 1450 3294 
Q 1716 3422 2041 3422 
Q 2753 3422 3003 2925 
Q 3141 2653 3141 2147 
L 3141 0 
L 2569 0 
L 2569 2109 
Q 2569 2416 2478 2603 
Q 2328 2916 1934 2916 
Q 1734 2916 1606 2875 
Q 1375 2806 1200 2600 
Q 1059 2434 1017 2257 
Q 975 2081 975 1753 
L 975 0 
L 413 0 
L 413 3347 
z
M 1734 3428 
L 1734 3428 
z
" transform="scale(0.015625)"/>
       <path id="Helvetica-63" d="M 1703 3444 
Q 2269 3444 2623 3169 
Q 2978 2894 3050 2222 
L 2503 2222 
Q 2453 2531 2275 2736 
Q 2097 2941 1703 2941 
Q 1166 2941 934 2416 
Q 784 2075 784 1575 
Q 784 1072 996 728 
Q 1209 384 1666 384 
Q 2016 384 2220 598 
Q 2425 813 2503 1184 
L 3050 1184 
Q 2956 519 2581 211 
Q 2206 -97 1622 -97 
Q 966 -97 575 383 
Q 184 863 184 1581 
Q 184 2463 612 2953 
Q 1041 3444 1703 3444 
z
M 1616 3428 
L 1616 3428 
z
" transform="scale(0.015625)"/>
       <path id="Helvetica-69" d="M 413 3331 
L 984 3331 
L 984 0 
L 413 0 
L 413 3331 
z
M 413 4591 
L 984 4591 
L 984 3953 
L 413 3953 
L 413 4591 
z
" transform="scale(0.015625)"/>
       <path id="Helvetica-28" d="M 1894 4666 
Q 1403 3713 1256 3263 
Q 1034 2578 1034 1681 
Q 1034 775 1288 25 
Q 1444 -438 1903 -1306 
L 1525 -1306 
Q 1069 -594 959 -397 
Q 850 -200 722 138 
Q 547 600 478 1125 
Q 444 1397 444 1644 
Q 444 2569 734 3291 
Q 919 3750 1503 4666 
L 1894 4666 
z
" transform="scale(0.015625)"/>
       <path id="Helvetica-56" d="M 850 4591 
L 2169 681 
L 3472 4591 
L 4169 4591 
L 2494 0 
L 1834 0 
L 163 4591 
L 850 4591 
z
" transform="scale(0.015625)"/>
       <path id="Helvetica-2f" d="M 1456 4591 
L 1931 4591 
L 475 0 
L 0 0 
L 1456 4591 
z
" transform="scale(0.015625)"/>
       <path id="Helvetica-29" d="M 222 -1306 
Q 719 -338 863 106 
Q 1081 778 1081 1681 
Q 1081 2584 828 3334 
Q 672 3797 213 4666 
L 591 4666 
Q 1072 3897 1173 3717 
Q 1275 3538 1394 3222 
Q 1544 2831 1608 2450 
Q 1672 2069 1672 1716 
Q 1672 791 1378 66 
Q 1194 -400 613 -1306 
L 222 -1306 
z
" transform="scale(0.015625)"/>
      </defs>
      <use xlink:href="#Helvetica-4c"/>
      <use xlink:href="#Helvetica-6f" x="55.615234"/>
      <use xlink:href="#Helvetica-73" x="111.230469"/>
      <use xlink:href="#Helvetica-73" x="161.230469"/>
      <use xlink:href="#Helvetica-20" x="211.230469"/>
      <use xlink:href="#Helvetica-66" x="239.013672"/>
      <use xlink:href="#Helvetica-75" x="266.796875"/>
      <use xlink:href="#Helvetica-6e" x="322.412109"/>
      <use xlink:href="#Helvetica-63" x="378.027344"/>
      <use xlink:href="#Helvetica-74" x="428.027344"/>
      <use xlink:href="#Helvetica-69" x="455.810547"/>
      <use xlink:href="#Helvetica-6f" x="478.027344"/>
      <use xlink:href="#Helvetica-6e" x="533.642578"/>
      <use xlink:href="#Helvetica-20" x="589.257812"/>
      <use xlink:href="#Helvetica-28" x="617.041016"/>
      <use xlink:href="#Helvetica-6d" x="650.341797"/>
      <use xlink:href="#Helvetica-65" x="733.642578"/>
      <use xlink:href="#Helvetica-56" x="789.257812"/>
      <use xlink:href="#Helvetica-2f" x="855.957031"/>
      <use xlink:href="#Helvetica-61" x="883.740234"/>
      <use xlink:href="#Helvetica-74" x="939.355469"/>
      <use xlink:href="#Helvetica-6f" x="967.138672"/>
      <use xlink:href="#Helvetica-6d" x="1022.753906"/>
      <use xlink:href="#Helvetica-29" x="1106.054688"/>
     </g>
    </g>
   </g>
   <g id="PathCollection_1">
    <defs>
     <path id="mfa4ba19dd7" d="M 0 2.236068 
C 0.593012 2.236068 1.161816 2.000462 1.581139 1.581139 
C 2.000462 1.161816 2.236068 0.593012 2.236068 0 
C 2.236068 -0.593012 2.000462 -1.161816 1.581139 -1.581139 
C 1.161816 -2.000462 0.593012 -2.236068 0 -2.236068 
C -0.593012 -2.236068 -1.161816 -2.000462 -1.581139 -1.581139 
C -2.000462 -1.161816 -2.236068 -0.593012 -2.236068 0 
C -2.236068 0.593012 -2.000462 1.161816 -1.581139 1.581139 
C -1.161816 2.000462 -0.593012 2.236068 0 2.236068 
z
" style="stroke: #d62728"/>
    </defs>
    <g clip-path="url(#paab5021bcd)">
     <use xlink:href="#mfa4ba19dd7" x="90.591256" y="210.154441" style="fill: #d62728; stroke: #d62728"/>
     <use xlink:href="#mfa4ba19dd7" x="90.591256" y="230.182561" style="fill: #d62728; stroke: #d62728"/>
     <use xlink:href="#mfa4ba19dd7" x="90.591256" y="241.227785" style="fill: #d62728; stroke: #d62728"/>
     <use xlink:href="#mfa4ba19dd7" x="90.591256" y="245.873116" style="fill: #d62728; stroke: #d62728"/>
     <use xlink:href="#mfa4ba19dd7" x="119.406512" y="249.57385" style="fill: #d62728; stroke: #d62728"/>
     <use xlink:href="#mfa4ba19dd7" x="119.406512" y="263.859057" style="fill: #d62728; stroke: #d62728"/>
     <use xlink:href="#mfa4ba19dd7" x="139.851261" y="269.994979" style="fill: #d62728; stroke: #d62728"/>
     <use xlink:href="#mfa4ba19dd7" x="155.709441" y="275.450133" style="fill: #d62728; stroke: #d62728"/>
     <use xlink:href="#mfa4ba19dd7" x="168.666517" y="309.052783" style="fill: #d62728; stroke: #d62728"/>
     <use xlink:href="#mfa4ba19dd7" x="189.111266" y="311.177437" style="fill: #d62728; stroke: #d62728"/>
     <use xlink:href="#mfa4ba19dd7" x="420.197926" y="337.233156" style="fill: #d62728; stroke: #d62728"/>
     <use xlink:href="#mfa4ba19dd7" x="451.269472" y="337.630407" style="fill: #d62728; stroke: #d62728"/>
    </g>
   </g>
   <g id="line2d_89">
    <path d="M 90.591256 13.824 
L 90.591256 210.154441 
L 90.591256 210.154441 
L 90.591256 230.182561 
L 90.591256 230.182561 
L 90.591256 241.227785 
L 90.591256 241.227785 
L 90.591256 245.873116 
L 119.406512 245.873116 
L 119.406512 249.57385 
L 119.406512 249.57385 
L 119.406512 263.859057 
L 139.851261 263.859057 
L 139.851261 269.994979 
L 155.709441 269.994979 
L 155.709441 275.450133 
L 168.666517 275.450133 
L 168.666517 309.052783 
L 189.111266 309.052783 
L 189.111266 311.177437 
L 420.197926 311.177437 
L 420.197926 337.233156 
L 451.269472 337.233156 
L 451.269472 337.630407 
L 460.944 337.630407 
" clip-path="url(#paab5021bcd)" style="fill: none; stroke: #d62728; stroke-width: 2.5; stroke-linecap: square"/>
   </g>
   <g id="line2d_90"/>
   <g id="line2d_91"/>
   <g id="line2d_92"/>
   <g id="line2d_93"/>
   <g id="line2d_94"/>
   <g id="line2d_95"/>
   <g id="line2d_96"/>
   <g id="patch_3">
    <path d="M 61.776 410.112 
L 61.776 13.824 
" style="fill: none; stroke: #000000; stroke-width: 1.5; stroke-linejoin: miter; stroke-linecap: square"/>
   </g>
   <g id="patch_4">
    <path d="M 460.944 410.112 
L 460.944 13.824 
" style="fill: none; stroke: #000000; stroke-width: 1.5; stroke-linejoin: miter; stroke-linecap: square"/>
   </g>
   <g id="patch_5">
    <path d="M 61.776 410.112 
L 460.944 410.112 
" style="fill: none; stroke: #000000; stroke-width: 1.5; stroke-linejoin: miter; stroke-linecap: square"/>
   </g>
   <g id="patch_6">
    <path d="M 61.776 13.824 
L 460.944 13.824 
" style="fill: none; stroke: #000000; stroke-width: 1.5; stroke-linejoin: miter; stroke-linecap: square"/>
   </g>
   <g id="legend_1">
    <g id="patch_7">
     <path d="M 254.441813 156.5865 
L 451.944 156.5865 
L 451.944 22.824 
L 254.441813 22.824 
z
" style="fill: #ffffff; stroke: #000000; stroke-linejoin: miter"/>
    </g>
    <g id="line2d_97">
     <defs>
      <path id="me892296e90" d="M 0 6 
C 1.591219 6 3.117479 5.367802 4.242641 4.242641 
C 5.367802 3.117479 6 1.591219 6 0 
C 6 -1.591219 5.367802 -3.117479 4.242641 -4.242641 
C 3.117479 -5.367802 1.591219 -6 0 -6 
C -1.591219 -6 -3.117479 -5.367802 -4.242641 -4.242641 
C -5.367802 -3.117479 -6 -1.591219 -6 0 
C -6 1.591219 -5.367802 3.117479 -4.242641 4.242641 
C -3.117479 5.367802 -1.591219 6 0 6 
z
" style="stroke: #000000; stroke-opacity: 0"/>
     </defs>
     <g>
      <use xlink:href="#me892296e90" x="270.641813" y="36.636188" style="fill: #1f77b4; stroke: #000000; stroke-opacity: 0"/>
     </g>
    </g>
    <g id="text_9">
     <!-- Sutton-Chen -->
     <g transform="translate(288.641813 42.936188) scale(0.18 -0.18)">
      <defs>
       <path id="Helvetica-53" d="M 894 1481 
Q 916 1091 1078 847 
Q 1388 391 2169 391 
Q 2519 391 2806 491 
Q 3363 684 3363 1184 
Q 3363 1559 3128 1719 
Q 2891 1875 2384 1991 
L 1763 2131 
Q 1153 2269 900 2434 
Q 463 2722 463 3294 
Q 463 3913 891 4309 
Q 1319 4706 2103 4706 
Q 2825 4706 3329 4357 
Q 3834 4009 3834 3244 
L 3250 3244 
Q 3203 3613 3050 3809 
Q 2766 4169 2084 4169 
Q 1534 4169 1293 3937 
Q 1053 3706 1053 3400 
Q 1053 3063 1334 2906 
Q 1519 2806 2169 2656 
L 2813 2509 
Q 3278 2403 3531 2219 
Q 3969 1897 3969 1284 
Q 3969 522 3414 194 
Q 2859 -134 2125 -134 
Q 1269 -134 784 303 
Q 300 738 309 1481 
L 894 1481 
z
M 2150 4716 
L 2150 4716 
z
" transform="scale(0.015625)"/>
       <path id="Helvetica-2d" d="M 266 2072 
L 1834 2072 
L 1834 1494 
L 266 1494 
L 266 2072 
z
" transform="scale(0.015625)"/>
       <path id="Helvetica-43" d="M 2422 4716 
Q 3294 4716 3775 4256 
Q 4256 3797 4309 3213 
L 3703 3213 
Q 3600 3656 3292 3915 
Q 2984 4175 2428 4175 
Q 1750 4175 1333 3698 
Q 916 3222 916 2238 
Q 916 1431 1292 929 
Q 1669 428 2416 428 
Q 3103 428 3463 956 
Q 3653 1234 3747 1688 
L 4353 1688 
Q 4272 963 3816 472 
Q 3269 -119 2341 -119 
Q 1541 -119 997 366 
Q 281 1006 281 2344 
Q 281 3359 819 4009 
Q 1400 4716 2422 4716 
z
M 2297 4716 
L 2297 4716 
z
" transform="scale(0.015625)"/>
       <path id="Helvetica-68" d="M 413 4606 
L 975 4606 
L 975 2894 
Q 1175 3147 1334 3250 
Q 1606 3428 2013 3428 
Q 2741 3428 3000 2919 
Q 3141 2641 3141 2147 
L 3141 0 
L 2563 0 
L 2563 2109 
Q 2563 2478 2469 2650 
Q 2316 2925 1894 2925 
Q 1544 2925 1259 2684 
Q 975 2444 975 1775 
L 975 0 
L 413 0 
L 413 4606 
z
" transform="scale(0.015625)"/>
      </defs>
      <use xlink:href="#Helvetica-53"/>
      <use xlink:href="#Helvetica-75" x="66.699219"/>
      <use xlink:href="#Helvetica-74" x="122.314453"/>
      <use xlink:href="#Helvetica-74" x="150.097656"/>
      <use xlink:href="#Helvetica-6f" x="177.880859"/>
      <use xlink:href="#Helvetica-6e" x="233.496094"/>
      <use xlink:href="#Helvetica-2d" x="289.111328"/>
      <use xlink:href="#Helvetica-43" x="322.412109"/>
      <use xlink:href="#Helvetica-68" x="394.628906"/>
      <use xlink:href="#Helvetica-65" x="450.244141"/>
      <use xlink:href="#Helvetica-6e" x="505.859375"/>
     </g>
    </g>
    <g id="line2d_98">
     <defs>
      <path id="m3038db4675" d="M 0 6 
C 1.591219 6 3.117479 5.367802 4.242641 4.242641 
C 5.367802 3.117479 6 1.591219 6 0 
C 6 -1.591219 5.367802 -3.117479 4.242641 -4.242641 
C 3.117479 -5.367802 1.591219 -6 0 -6 
C -1.591219 -6 -3.117479 -5.367802 -4.242641 -4.242641 
C -5.367802 -3.117479 -6 -1.591219 -6 0 
C -6 1.591219 -5.367802 3.117479 -4.242641 4.242641 
C -3.117479 5.367802 -1.591219 6 0 6 
z
" style="stroke: #000000; stroke-opacity: 0"/>
     </defs>
     <g>
      <use xlink:href="#m3038db4675" x="270.641813" y="62.30025" style="fill: #ff7f0e; stroke: #000000; stroke-opacity: 0"/>
     </g>
    </g>
    <g id="text_10">
     <!-- TB-SMA -->
     <g transform="translate(288.641813 68.60025) scale(0.18 -0.18)">
      <defs>
       <path id="Helvetica-54" d="M 3828 4591 
L 3828 4044 
L 2281 4044 
L 2281 0 
L 1650 0 
L 1650 4044 
L 103 4044 
L 103 4591 
L 3828 4591 
z
" transform="scale(0.015625)"/>
       <path id="Helvetica-42" d="M 2213 2650 
Q 2606 2650 2825 2759 
Q 3169 2931 3169 3378 
Q 3169 3828 2803 3984 
Q 2597 4072 2191 4072 
L 1081 4072 
L 1081 2650 
L 2213 2650 
z
M 2422 531 
Q 2994 531 3238 863 
Q 3391 1072 3391 1369 
Q 3391 1869 2944 2050 
Q 2706 2147 2316 2147 
L 1081 2147 
L 1081 531 
L 2422 531 
z
M 472 4591 
L 2444 4591 
Q 3250 4591 3591 4109 
Q 3791 3825 3791 3453 
Q 3791 3019 3544 2741 
Q 3416 2594 3175 2472 
Q 3528 2338 3703 2169 
Q 4013 1869 4013 1341 
Q 4013 897 3734 538 
Q 3319 0 2413 0 
L 472 0 
L 472 4591 
z
" transform="scale(0.015625)"/>
       <path id="Helvetica-4d" d="M 472 4591 
L 1363 4591 
L 2681 709 
L 3991 4591 
L 4872 4591 
L 4872 0 
L 4281 0 
L 4281 2709 
Q 4281 2850 4287 3175 
Q 4294 3500 4294 3872 
L 2984 0 
L 2369 0 
L 1050 3872 
L 1050 3731 
Q 1050 3563 1058 3217 
Q 1066 2872 1066 2709 
L 1066 0 
L 472 0 
L 472 4591 
z
" transform="scale(0.015625)"/>
       <path id="Helvetica-41" d="M 2844 1881 
L 2147 3909 
L 1406 1881 
L 2844 1881 
z
M 1822 4591 
L 2525 4591 
L 4191 0 
L 3509 0 
L 3044 1375 
L 1228 1375 
L 731 0 
L 94 0 
L 1822 4591 
z
M 2144 4591 
L 2144 4591 
z
" transform="scale(0.015625)"/>
      </defs>
      <use xlink:href="#Helvetica-54"/>
      <use xlink:href="#Helvetica-42" x="61.083984"/>
      <use xlink:href="#Helvetica-2d" x="127.783203"/>
      <use xlink:href="#Helvetica-53" x="161.083984"/>
      <use xlink:href="#Helvetica-4d" x="227.783203"/>
      <use xlink:href="#Helvetica-41" x="311.083984"/>
     </g>
    </g>
    <g id="line2d_99">
     <defs>
      <path id="m648bc10759" d="M 0 6 
C 1.591219 6 3.117479 5.367802 4.242641 4.242641 
C 5.367802 3.117479 6 1.591219 6 0 
C 6 -1.591219 5.367802 -3.117479 4.242641 -4.242641 
C 3.117479 -5.367802 1.591219 -6 0 -6 
C -1.591219 -6 -3.117479 -5.367802 -4.242641 -4.242641 
C -5.367802 -3.117479 -6 -1.591219 -6 0 
C -6 1.591219 -5.367802 3.117479 -4.242641 4.242641 
C -3.117479 5.367802 -1.591219 6 0 6 
z
" style="stroke: #000000; stroke-opacity: 0"/>
     </defs>
     <g>
      <use xlink:href="#m648bc10759" x="270.641813" y="87.964313" style="fill: #2ca02c; stroke: #000000; stroke-opacity: 0"/>
     </g>
    </g>
    <g id="text_11">
     <!-- Finnis-Sinclair -->
     <g transform="translate(288.641813 94.264313) scale(0.18 -0.18)">
      <defs>
       <path id="Helvetica-46" d="M 547 4591 
L 3731 4591 
L 3731 4028 
L 1169 4028 
L 1169 2634 
L 3422 2634 
L 3422 2088 
L 1169 2088 
L 1169 0 
L 547 0 
L 547 4591 
z
" transform="scale(0.015625)"/>
       <path id="Helvetica-6c" d="M 428 4591 
L 991 4591 
L 991 0 
L 428 0 
L 428 4591 
z
" transform="scale(0.015625)"/>
      </defs>
      <use xlink:href="#Helvetica-46"/>
      <use xlink:href="#Helvetica-69" x="61.083984"/>
      <use xlink:href="#Helvetica-6e" x="83.300781"/>
      <use xlink:href="#Helvetica-6e" x="138.916016"/>
      <use xlink:href="#Helvetica-69" x="194.53125"/>
      <use xlink:href="#Helvetica-73" x="216.748047"/>
      <use xlink:href="#Helvetica-2d" x="266.748047"/>
      <use xlink:href="#Helvetica-53" x="300.048828"/>
      <use xlink:href="#Helvetica-69" x="366.748047"/>
      <use xlink:href="#Helvetica-6e" x="388.964844"/>
      <use xlink:href="#Helvetica-63" x="444.580078"/>
      <use xlink:href="#Helvetica-6c" x="494.580078"/>
      <use xlink:href="#Helvetica-61" x="516.796875"/>
      <use xlink:href="#Helvetica-69" x="572.412109"/>
      <use xlink:href="#Helvetica-72" x="594.628906"/>
     </g>
    </g>
    <g id="line2d_100">
     <defs>
      <path id="maeb74c9ce2" d="M 0 6 
C 1.591219 6 3.117479 5.367802 4.242641 4.242641 
C 5.367802 3.117479 6 1.591219 6 0 
C 6 -1.591219 5.367802 -3.117479 4.242641 -4.242641 
C 3.117479 -5.367802 1.591219 -6 0 -6 
C -1.591219 -6 -3.117479 -5.367802 -4.242641 -4.242641 
C -5.367802 -3.117479 -6 -1.591219 -6 0 
C -6 1.591219 -5.367802 3.117479 -4.242641 4.242641 
C -3.117479 5.367802 -1.591219 6 0 6 
z
" style="stroke: #000000; stroke-opacity: 0"/>
     </defs>
     <g>
      <use xlink:href="#maeb74c9ce2" x="270.641813" y="113.628375" style="fill: #9467bd; stroke: #000000; stroke-opacity: 0"/>
     </g>
    </g>
    <g id="text_12">
     <!-- Behler-Parrinello -->
     <g transform="translate(288.641813 119.928375) scale(0.18 -0.18)">
      <defs>
       <path id="Helvetica-50" d="M 547 4591 
L 2613 4591 
Q 3225 4591 3600 4245 
Q 3975 3900 3975 3275 
Q 3975 2738 3640 2339 
Q 3306 1941 2613 1941 
L 1169 1941 
L 1169 0 
L 547 0 
L 547 4591 
z
M 3347 3272 
Q 3347 3778 2972 3959 
Q 2766 4056 2406 4056 
L 1169 4056 
L 1169 2466 
L 2406 2466 
Q 2825 2466 3086 2644 
Q 3347 2822 3347 3272 
z
" transform="scale(0.015625)"/>
      </defs>
      <use xlink:href="#Helvetica-42"/>
      <use xlink:href="#Helvetica-65" x="66.699219"/>
      <use xlink:href="#Helvetica-68" x="122.314453"/>
      <use xlink:href="#Helvetica-6c" x="177.929688"/>
      <use xlink:href="#Helvetica-65" x="200.146484"/>
      <use xlink:href="#Helvetica-72" x="255.761719"/>
      <use xlink:href="#Helvetica-2d" x="289.0625"/>
      <use xlink:href="#Helvetica-50" x="322.363281"/>
      <use xlink:href="#Helvetica-61" x="389.0625"/>
      <use xlink:href="#Helvetica-72" x="444.677734"/>
      <use xlink:href="#Helvetica-72" x="477.978516"/>
      <use xlink:href="#Helvetica-69" x="511.279297"/>
      <use xlink:href="#Helvetica-6e" x="533.496094"/>
      <use xlink:href="#Helvetica-65" x="589.111328"/>
      <use xlink:href="#Helvetica-6c" x="644.726562"/>
      <use xlink:href="#Helvetica-6c" x="666.943359"/>
      <use xlink:href="#Helvetica-6f" x="689.160156"/>
     </g>
    </g>
    <g id="line2d_101">
     <defs>
      <path id="m8983c95244" d="M 0 6 
C 1.591219 6 3.117479 5.367802 4.242641 4.242641 
C 5.367802 3.117479 6 1.591219 6 0 
C 6 -1.591219 5.367802 -3.117479 4.242641 -4.242641 
C 3.117479 -5.367802 1.591219 -6 0 -6 
C -1.591219 -6 -3.117479 -5.367802 -4.242641 -4.242641 
C -5.367802 -3.117479 -6 -1.591219 -6 0 
C -6 1.591219 -5.367802 3.117479 -4.242641 4.242641 
C -3.117479 5.367802 -1.591219 6 0 6 
z
" style="stroke: #000000; stroke-opacity: 0"/>
     </defs>
     <g>
      <use xlink:href="#m8983c95244" x="270.641813" y="139.334625" style="fill: #8c564b; stroke: #000000; stroke-opacity: 0"/>
     </g>
    </g>
    <g id="text_13">
     <!-- Double Exponential -->
     <g transform="translate(288.641813 145.634625) scale(0.18 -0.18)">
      <defs>
       <path id="Helvetica-44" d="M 2250 531 
Q 2566 531 2769 597 
Q 3131 719 3363 1066 
Q 3547 1344 3628 1778 
Q 3675 2038 3675 2259 
Q 3675 3113 3336 3584 
Q 2997 4056 2244 4056 
L 1141 4056 
L 1141 531 
L 2250 531 
z
M 516 4591 
L 2375 4591 
Q 3322 4591 3844 3919 
Q 4309 3313 4309 2366 
Q 4309 1634 4034 1044 
Q 3550 0 2369 0 
L 516 0 
L 516 4591 
z
" transform="scale(0.015625)"/>
       <path id="Helvetica-45" d="M 547 4591 
L 3894 4591 
L 3894 4028 
L 1153 4028 
L 1153 2634 
L 3688 2634 
L 3688 2103 
L 1153 2103 
L 1153 547 
L 3941 547 
L 3941 0 
L 547 0 
L 547 4591 
z
M 2244 4591 
L 2244 4591 
z
" transform="scale(0.015625)"/>
       <path id="Helvetica-78" d="M 94 3347 
L 822 3347 
L 1591 2169 
L 2369 3347 
L 3053 3331 
L 1925 1716 
L 3103 0 
L 2384 0 
L 1553 1256 
L 747 0 
L 34 0 
L 1213 1716 
L 94 3347 
z
" transform="scale(0.015625)"/>
      </defs>
      <use xlink:href="#Helvetica-44"/>
      <use xlink:href="#Helvetica-6f" x="72.216797"/>
      <use xlink:href="#Helvetica-75" x="127.832031"/>
      <use xlink:href="#Helvetica-62" x="183.447266"/>
      <use xlink:href="#Helvetica-6c" x="239.0625"/>
      <use xlink:href="#Helvetica-65" x="261.279297"/>
      <use xlink:href="#Helvetica-20" x="316.894531"/>
      <use xlink:href="#Helvetica-45" x="344.677734"/>
      <use xlink:href="#Helvetica-78" x="411.376953"/>
      <use xlink:href="#Helvetica-70" x="461.376953"/>
      <use xlink:href="#Helvetica-6f" x="516.992188"/>
      <use xlink:href="#Helvetica-6e" x="572.607422"/>
      <use xlink:href="#Helvetica-65" x="628.222656"/>
      <use xlink:href="#Helvetica-6e" x="683.837891"/>
      <use xlink:href="#Helvetica-74" x="739.453125"/>
      <use xlink:href="#Helvetica-69" x="767.236328"/>
      <use xlink:href="#Helvetica-61" x="789.453125"/>
      <use xlink:href="#Helvetica-6c" x="845.068359"/>
     </g>
    </g>
   </g>
   <g id="legend_2">
    <g id="patch_8">
     <path d="M 377.064 241.128 
L 451.944 241.128 
L 451.944 182.808 
L 377.064 182.808 
z
" style="fill: #ffffff; stroke: #000000; stroke-linejoin: miter"/>
    </g>
    <g id="line2d_102">
     <defs>
      <path id="m5b0a71c25a" d="M 0 -6 
C -1.591219 -6 -3.117479 -5.367802 -4.242641 -4.242641 
C -5.367802 -3.117479 -6 -1.591219 -6 -0 
C -6 1.591219 -5.367802 3.117479 -4.242641 4.242641 
C -3.117479 5.367802 -1.591219 6 -0 6 
z
" style="stroke: #000000; stroke-opacity: 0"/>
     </defs>
     <g>
      <use xlink:href="#m5b0a71c25a" x="393.264" y="197.388" style="fill: #808080; stroke: #000000; stroke-opacity: 0"/>
     </g>
     <defs>
      <path id="mc83d52a811" d="M -0 6 
C 1.591219 6 3.117479 5.367802 4.242641 4.242641 
C 5.367802 3.117479 6 1.591219 6 0 
C 6 -1.591219 5.367802 -3.117479 4.242641 -4.242641 
C 3.117479 -5.367802 1.591219 -6 0 -6 
z
" style="stroke: #000000; stroke-opacity: 0"/>
     </defs>
     <g>
      <use xlink:href="#mc83d52a811" x="393.264" y="197.388" style="fill-opacity: 0; stroke: #000000; stroke-opacity: 0"/>
     </g>
    </g>
    <g id="text_14">
     <!-- $\rho(r)$ -->
     <g transform="translate(411.264 203.688) scale(0.18 -0.18)">
      <defs>
       <path id="DejaVuSans-Oblique-3c1" d="M 1203 2875 
Q 1453 3194 1981 3475 
Q 2188 3584 2756 3584 
Q 3394 3584 3694 3078 
Q 3994 2572 3834 1747 
Q 3672 922 3175 415 
Q 2678 -91 2041 -91 
Q 1656 -91 1409 63 
Q 1163 213 1044 525 
L 681 -1331 
L 103 -1331 
L 697 1716 
Q 838 2438 1203 2875 
z
M 3238 1747 
Q 3359 2381 3169 2744 
Q 2978 3103 2522 3103 
Q 2066 3103 1734 2744 
Q 1403 2381 1281 1747 
Q 1156 1113 1347 750 
Q 1538 391 1994 391 
Q 2450 391 2781 750 
Q 3113 1113 3238 1747 
z
" transform="scale(0.015625)"/>
       <path id="DejaVuSans-28" d="M 1984 4856 
Q 1566 4138 1362 3434 
Q 1159 2731 1159 2009 
Q 1159 1288 1364 580 
Q 1569 -128 1984 -844 
L 1484 -844 
Q 1016 -109 783 600 
Q 550 1309 550 2009 
Q 550 2706 781 3412 
Q 1013 4119 1484 4856 
L 1984 4856 
z
" transform="scale(0.015625)"/>
       <path id="DejaVuSans-Oblique-72" d="M 2853 2969 
Q 2766 3016 2653 3041 
Q 2541 3066 2413 3066 
Q 1953 3066 1609 2717 
Q 1266 2369 1153 1784 
L 800 0 
L 225 0 
L 909 3500 
L 1484 3500 
L 1375 2956 
Q 1603 3259 1920 3421 
Q 2238 3584 2597 3584 
Q 2691 3584 2781 3573 
Q 2872 3563 2963 3538 
L 2853 2969 
z
" transform="scale(0.015625)"/>
       <path id="DejaVuSans-29" d="M 513 4856 
L 1013 4856 
Q 1481 4119 1714 3412 
Q 1947 2706 1947 2009 
Q 1947 1309 1714 600 
Q 1481 -109 1013 -844 
L 513 -844 
Q 928 -128 1133 580 
Q 1338 1288 1338 2009 
Q 1338 2731 1133 3434 
Q 928 4138 513 4856 
z
" transform="scale(0.015625)"/>
      </defs>
      <use xlink:href="#DejaVuSans-Oblique-3c1" transform="translate(0 0.125)"/>
      <use xlink:href="#DejaVuSans-28" transform="translate(63.476562 0.125)"/>
      <use xlink:href="#DejaVuSans-Oblique-72" transform="translate(102.490234 0.125)"/>
      <use xlink:href="#DejaVuSans-29" transform="translate(143.603516 0.125)"/>
     </g>
    </g>
    <g id="line2d_103">
     <defs>
      <path id="m12fc8853c4" d="M 0 6 
C 1.591219 6 3.117479 5.367802 4.242641 4.242641 
C 5.367802 3.117479 6 1.591219 6 0 
C 6 -1.591219 5.367802 -3.117479 4.242641 -4.242641 
C 3.117479 -5.367802 1.591219 -6 0 -6 
z
" style="stroke: #000000; stroke-opacity: 0"/>
     </defs>
     <g>
      <use xlink:href="#m12fc8853c4" x="393.264" y="223.848" style="fill: #808080; stroke: #000000; stroke-opacity: 0"/>
     </g>
     <defs>
      <path id="mcae619b87b" d="M 0 -6 
C -1.591219 -6 -3.117479 -5.367802 -4.242641 -4.242641 
C -5.367802 -3.117479 -6 -1.591219 -6 -0 
C -6 1.591219 -5.367802 3.117479 -4.242641 4.242641 
C -3.117479 5.367802 -1.591219 6 -0 6 
z
" style="stroke: #000000; stroke-opacity: 0"/>
     </defs>
     <g>
      <use xlink:href="#mcae619b87b" x="393.264" y="223.848" style="fill-opacity: 0; stroke: #000000; stroke-opacity: 0"/>
     </g>
    </g>
    <g id="text_15">
     <!-- $\phi(r)$ -->
     <g transform="translate(411.264 230.148) scale(0.18 -0.18)">
      <defs>
       <path id="DejaVuSans-Oblique-3d5" d="M 2991 4863 
L 2738 3572 
Q 3363 3572 3684 3094 
Q 4016 2606 3850 1747 
Q 3681 888 3159 400 
Q 2653 -78 2028 -78 
L 1784 -1331 
L 1213 -1331 
L 1456 -78 
Q 834 -78 509 400 
Q 178 888 347 1747 
Q 513 2606 1034 3094 
Q 1544 3572 2166 3572 
L 2419 4863 
L 2991 4863 
z
M 2128 434 
Q 2481 434 2784 756 
Q 3116 1116 3244 1747 
Q 3369 2372 3169 2738 
Q 2991 3059 2638 3059 
L 2128 434 
z
M 1556 434 
L 2066 3059 
Q 1716 3059 1413 2738 
Q 1072 2372 953 1747 
Q 834 1116 1028 756 
Q 1203 434 1556 434 
z
" transform="scale(0.015625)"/>
      </defs>
      <use xlink:href="#DejaVuSans-Oblique-3d5" transform="translate(0 0.015625)"/>
      <use xlink:href="#DejaVuSans-28" transform="translate(65.966797 0.015625)"/>
      <use xlink:href="#DejaVuSans-Oblique-72" transform="translate(104.980469 0.015625)"/>
      <use xlink:href="#DejaVuSans-29" transform="translate(146.09375 0.015625)"/>
     </g>
    </g>
   </g>
   <g id="line2d_104">
    <g clip-path="url(#paab5021bcd)">
     <use xlink:href="#me892296e90" x="90.591256" y="210.154441" style="fill: #1f77b4; stroke: #000000; stroke-opacity: 0"/>
    </g>
   </g>
   <g id="line2d_105">
    <g clip-path="url(#paab5021bcd)">
     <use xlink:href="#me892296e90" x="90.591256" y="230.182561" style="fill: #1f77b4; stroke: #000000; stroke-opacity: 0"/>
    </g>
   </g>
   <g id="line2d_106">
    <g clip-path="url(#paab5021bcd)">
     <use xlink:href="#me892296e90" x="90.591256" y="241.227785" style="fill: #1f77b4; stroke: #000000; stroke-opacity: 0"/>
    </g>
   </g>
   <g id="line2d_107">
    <g clip-path="url(#paab5021bcd)">
     <use xlink:href="#me892296e90" x="90.591256" y="245.873116" style="fill: #1f77b4; stroke: #000000; stroke-opacity: 0"/>
    </g>
   </g>
   <g id="line2d_108">
    <g clip-path="url(#paab5021bcd)">
     <use xlink:href="#me892296e90" x="90.591256" y="136.427924" style="fill: #1f77b4; stroke: #000000; stroke-opacity: 0"/>
    </g>
   </g>
   <g id="line2d_109">
    <g clip-path="url(#paab5021bcd)">
     <use xlink:href="#m3038db4675" x="139.851261" y="269.994979" style="fill: #ff7f0e; stroke: #000000; stroke-opacity: 0"/>
    </g>
   </g>
   <g id="line2d_110">
    <g clip-path="url(#paab5021bcd)">
     <use xlink:href="#m3038db4675" x="155.709441" y="275.450133" style="fill: #ff7f0e; stroke: #000000; stroke-opacity: 0"/>
    </g>
   </g>
   <g id="line2d_111">
    <g clip-path="url(#paab5021bcd)">
     <use xlink:href="#m648bc10759" x="179.621569" y="249.825939" style="fill: #2ca02c; stroke: #000000; stroke-opacity: 0"/>
    </g>
   </g>
   <g id="line2d_112">
    <g clip-path="url(#paab5021bcd)">
     <use xlink:href="#m648bc10759" x="168.666517" y="241.258244" style="fill: #2ca02c; stroke: #000000; stroke-opacity: 0"/>
    </g>
   </g>
   <g id="line2d_113">
    <g clip-path="url(#paab5021bcd)">
     <use xlink:href="#maeb74c9ce2" x="200.066318" y="24.455573" style="fill: #9467bd; stroke: #000000; stroke-opacity: 0"/>
    </g>
   </g>
   <g id="line2d_114">
    <g clip-path="url(#paab5021bcd)">
     <use xlink:href="#maeb74c9ce2" x="258.816021" y="213.875809" style="fill: #9467bd; stroke: #000000; stroke-opacity: 0"/>
    </g>
   </g>
   <g id="line2d_115">
    <g clip-path="url(#paab5021bcd)">
     <use xlink:href="#maeb74c9ce2" x="323.934206" y="297.584212" style="fill: #9467bd; stroke: #000000; stroke-opacity: 0"/>
    </g>
   </g>
   <g id="line2d_116">
    <g clip-path="url(#paab5021bcd)">
     <use xlink:href="#maeb74c9ce2" x="402.009467" y="308.431109" style="fill: #9467bd; stroke: #000000; stroke-opacity: 0"/>
    </g>
   </g>
   <g id="line2d_117">
    <g clip-path="url(#paab5021bcd)">
     <use xlink:href="#maeb74c9ce2" x="420.197926" y="337.233156" style="fill: #9467bd; stroke: #000000; stroke-opacity: 0"/>
    </g>
   </g>
   <g id="line2d_118">
    <g clip-path="url(#paab5021bcd)">
     <use xlink:href="#maeb74c9ce2" x="451.269472" y="337.630407" style="fill: #9467bd; stroke: #000000; stroke-opacity: 0"/>
    </g>
   </g>
   <g id="line2d_119">
    <defs>
     <path id="m79f25467b5" d="M 0 -6 
C -1.591219 -6 -3.117479 -5.367802 -4.242641 -4.242641 
C -5.367802 -3.117479 -6 -1.591219 -6 -0 
C -6 1.591219 -5.367802 3.117479 -4.242641 4.242641 
C -3.117479 5.367802 -1.591219 6 -0 6 
z
" style="stroke: #000000; stroke-opacity: 0"/>
    </defs>
    <g clip-path="url(#paab5021bcd)">
     <use xlink:href="#m79f25467b5" x="168.666517" y="309.052783" style="fill: #8c564b; stroke: #000000; stroke-opacity: 0"/>
    </g>
    <defs>
     <path id="mca41cb2223" d="M -0 6 
C 1.591219 6 3.117479 5.367802 4.242641 4.242641 
C 5.367802 3.117479 6 1.591219 6 0 
C 6 -1.591219 5.367802 -3.117479 4.242641 -4.242641 
C 3.117479 -5.367802 1.591219 -6 0 -6 
z
" style="stroke: #000000; stroke-opacity: 0"/>
    </defs>
    <g clip-path="url(#paab5021bcd)">
     <use xlink:href="#mca41cb2223" x="168.666517" y="309.052783" style="fill: #ff7f0e; stroke: #000000; stroke-opacity: 0"/>
    </g>
   </g>
   <g id="line2d_120">
    <defs>
     <path id="me1fedd7f4c" d="M 0 -6 
C -1.591219 -6 -3.117479 -5.367802 -4.242641 -4.242641 
C -5.367802 -3.117479 -6 -1.591219 -6 -0 
C -6 1.591219 -5.367802 3.117479 -4.242641 4.242641 
C -3.117479 5.367802 -1.591219 6 -0 6 
z
" style="stroke: #000000; stroke-opacity: 0"/>
    </defs>
    <g clip-path="url(#paab5021bcd)">
     <use xlink:href="#me1fedd7f4c" x="168.666517" y="273.585236" style="fill: #ff7f0e; stroke: #000000; stroke-opacity: 0"/>
    </g>
    <defs>
     <path id="mfb94ee322a" d="M -0 6 
C 1.591219 6 3.117479 5.367802 4.242641 4.242641 
C 5.367802 3.117479 6 1.591219 6 0 
C 6 -1.591219 5.367802 -3.117479 4.242641 -4.242641 
C 3.117479 -5.367802 1.591219 -6 0 -6 
z
" style="stroke: #000000; stroke-opacity: 0"/>
    </defs>
    <g clip-path="url(#paab5021bcd)">
     <use xlink:href="#mfb94ee322a" x="168.666517" y="273.585236" style="fill: #8c564b; stroke: #000000; stroke-opacity: 0"/>
    </g>
   </g>
   <g id="line2d_121">
    <defs>
     <path id="m5acd34557b" d="M 0 -6 
C -1.591219 -6 -3.117479 -5.367802 -4.242641 -4.242641 
C -5.367802 -3.117479 -6 -1.591219 -6 -0 
C -6 1.591219 -5.367802 3.117479 -4.242641 4.242641 
C -3.117479 5.367802 -1.591219 6 -0 6 
z
" style="stroke: #000000; stroke-opacity: 0"/>
    </defs>
    <g clip-path="url(#paab5021bcd)">
     <use xlink:href="#m5acd34557b" x="119.406512" y="249.57385" style="fill: #1f77b4; stroke: #000000; stroke-opacity: 0"/>
    </g>
    <g clip-path="url(#paab5021bcd)">
     <use xlink:href="#mca41cb2223" x="119.406512" y="249.57385" style="fill: #ff7f0e; stroke: #000000; stroke-opacity: 0"/>
    </g>
   </g>
   <g id="line2d_122">
    <g clip-path="url(#paab5021bcd)">
     <use xlink:href="#me1fedd7f4c" x="119.406512" y="263.859057" style="fill: #ff7f0e; stroke: #000000; stroke-opacity: 0"/>
    </g>
    <defs>
     <path id="mb0243ef0b7" d="M -0 6 
C 1.591219 6 3.117479 5.367802 4.242641 4.242641 
C 5.367802 3.117479 6 1.591219 6 0 
C 6 -1.591219 5.367802 -3.117479 4.242641 -4.242641 
C 3.117479 -5.367802 1.591219 -6 0 -6 
z
" style="stroke: #000000; stroke-opacity: 0"/>
    </defs>
    <g clip-path="url(#paab5021bcd)">
     <use xlink:href="#mb0243ef0b7" x="119.406512" y="263.859057" style="fill: #1f77b4; stroke: #000000; stroke-opacity: 0"/>
    </g>
   </g>
   <g id="line2d_123">
    <g clip-path="url(#paab5021bcd)">
     <use xlink:href="#m8983c95244" x="189.111266" y="311.177437" style="fill: #8c564b; stroke: #000000; stroke-opacity: 0"/>
    </g>
   </g>
  </g>
 </g>
 <defs>
  <clipPath id="paab5021bcd">
   <rect x="61.776" y="13.824" width="399.168" height="396.288"/>
  </clipPath>
 </defs>
</svg>
